<svg width="49" height="49" viewBox="0 0 49 49" fill="none" xmlns="http://www.w3.org/2000/svg">
<path fill-rule="evenodd" clip-rule="evenodd" d="M10.7687 20.6743C10.2083 21.8926 10.2083 23.2787 10.2083 26.0507V34.7082C10.2083 38.558 10.2083 40.4829 11.4043 41.6789C12.5821 42.8567 14.4668 42.8746 18.2007 42.8749V32.6667C18.2007 30.879 19.6499 29.4299 21.4375 29.4299H27.5625C29.3502 29.4299 30.7993 30.879 30.7993 32.6667V42.8749C34.5332 42.8746 36.4179 42.8567 37.5957 41.6789C38.7917 40.4829 38.7917 38.558 38.7917 34.7082V26.0507C38.7917 23.2787 38.7917 21.8926 38.2313 20.6743C37.671 19.4559 36.6186 18.5539 34.5139 16.7499L32.4722 14.9998C28.6679 11.739 26.7658 10.1086 24.5 10.1086C22.2342 10.1086 20.3321 11.739 16.5278 14.9998L16.5278 14.9999L14.4861 16.7498L14.4861 16.7499C12.3814 18.5539 11.3291 19.4559 10.7687 20.6743ZM28.4091 42.8749V32.6667C28.4091 32.1991 28.0301 31.8201 27.5625 31.8201H21.4375C20.97 31.8201 20.591 32.1991 20.591 32.6667V42.8749H28.4091Z" fill="#F15236"/>
</svg>
