<svg width="155" height="39" viewBox="0 0 155 39" fill="none" xmlns="http://www.w3.org/2000/svg">
<g filter="url(#filter0_i_13_618)">
<rect x="5" y="3.5" width="145" height="32" rx="15" fill="#2A2727"/>
<path d="M20.7617 15.0449H24.2012C25.9355 15.0449 27.1309 16.1992 27.1309 17.9395C27.1309 19.6738 25.8945 20.834 24.1133 20.834H22.5312V23.5H20.7617V15.0449ZM22.5312 16.4453V19.4512H23.7266C24.7402 19.4512 25.332 18.9121 25.332 17.9453C25.332 16.9844 24.7461 16.4453 23.7324 16.4453H22.5312ZM34.957 22.0352V23.5H29.3555V15.0449H34.957V16.5039H31.125V18.543H34.7402V19.9023H31.125V22.0352H34.957ZM39.8008 19.9551C39.7363 20.8984 39.6133 21.5488 39.2383 21.9883V22.0352H42.6895V16.498H40.0234L39.8008 19.9551ZM38.3535 23.5V25.1699H36.748V22.0352H37.3398C37.9316 21.6309 38.1016 20.9688 38.1719 19.8203L38.4648 15.0449H44.459V22.0352H45.5137V25.1699H43.9141V23.5H38.3535ZM53.0527 23.5L52.4082 21.4492H49.4375L48.793 23.5H46.9766L49.9121 15.0449H51.9922L54.9336 23.5H53.0527ZM50.9023 16.6621L49.8184 20.125H52.0273L50.9434 16.6621H50.9023ZM60.3516 19.0469L64.1309 23.5H61.9219L58.7344 19.7852H58.6875V23.5H56.918V15.0449H58.6875V18.625H58.7344L61.8574 15.0449H63.8555L60.3516 19.0469ZM69.502 23.5H67.7324V16.5039H65.2891V15.0449H71.9512V16.5039H69.502V23.5ZM79.6602 23.5V17.7812H79.5898L75.752 23.5H74.0469V15.0449H75.8105V20.7695H75.8809L79.7188 15.0449H81.4238V23.5H79.6602ZM83.9531 15.0449H87.3926C89.127 15.0449 90.3223 16.1992 90.3223 17.9395C90.3223 19.6738 89.0859 20.834 87.3047 20.834H85.7227V23.5H83.9531V15.0449ZM85.7227 16.4453V19.4512H86.918C87.9316 19.4512 88.5234 18.9121 88.5234 17.9453C88.5234 16.9844 87.9375 16.4453 86.9238 16.4453H85.7227ZM96.3613 14.8984C98.8633 14.8984 100.439 16.5801 100.439 19.2754C100.439 21.9648 98.8633 23.6465 96.3613 23.6465C93.8535 23.6465 92.2832 21.9648 92.2832 19.2754C92.2832 16.5801 93.8535 14.8984 96.3613 14.8984ZM96.3613 16.375C94.9785 16.375 94.0879 17.5 94.0879 19.2754C94.0879 21.0449 94.9727 22.1641 96.3613 22.1641C97.7441 22.1641 98.6289 21.0449 98.6289 19.2754C98.6289 17.5 97.7441 16.375 96.3613 16.375ZM106.443 23.5H102.699V15.0449H106.379C107.967 15.0449 108.963 15.8594 108.963 17.1543C108.963 18.0801 108.271 18.8535 107.375 18.9883V19.0352C108.523 19.123 109.367 19.9609 109.367 21.0801C109.367 22.5684 108.248 23.5 106.443 23.5ZM104.469 16.3633V18.5605H105.74C106.684 18.5605 107.223 18.1445 107.223 17.4297C107.223 16.75 106.748 16.3633 105.922 16.3633H104.469ZM104.469 22.1816H105.992C107.012 22.1816 107.562 21.748 107.562 20.9395C107.562 20.1484 106.994 19.7266 105.951 19.7266H104.469V22.1816ZM116.877 23.5L116.232 21.4492H113.262L112.617 23.5H110.801L113.736 15.0449H115.816L118.758 23.5H116.877ZM114.727 16.6621L113.643 20.125H115.852L114.768 16.6621H114.727ZM123.596 23.5H121.826V16.5039H119.383V15.0449H126.045V16.5039H123.596V23.5ZM128.141 23.5V15.0449H129.91V17.8809H131.551C133.332 17.8809 134.568 19.0117 134.568 20.6875C134.568 22.375 133.379 23.5 131.639 23.5H128.141ZM129.91 22.0879H131.17C132.178 22.0879 132.758 21.5957 132.758 20.6875C132.758 19.7734 132.172 19.2754 131.164 19.2754H129.91V22.0879Z" fill="white"/>
</g>
<defs>
<filter id="filter0_i_13_618" x="0" y="0" width="156" height="40" filterUnits="userSpaceOnUse" color-interpolation-filters="sRGB">
<feFlood flood-opacity="0" result="BackgroundImageFix"/>
<feBlend mode="normal" in="SourceGraphic" in2="BackgroundImageFix" result="shape"/>
<feColorMatrix in="SourceAlpha" type="matrix" values="0 0 0 0 0 0 0 0 0 0 0 0 0 0 0 0 0 0 127 0" result="hardAlpha"/>
<feOffset dx="1" dy="1"/>
<feGaussianBlur stdDeviation="1"/>
<feComposite in2="hardAlpha" operator="arithmetic" k2="-1" k3="1"/>
<feColorMatrix type="matrix" values="0 0 0 0 1 0 0 0 0 1 0 0 0 0 1 0 0 0 0.12 0"/>
<feBlend mode="normal" in2="shape" result="effect1_innerShadow_13_618"/>
</filter>
</defs>
</svg>
