<svg width="284" height="90" viewBox="0 0 284 90" fill="none" xmlns="http://www.w3.org/2000/svg">
<g filter="url(#filter0_i_14_291)">
<rect width="284" height="90" rx="20" fill="#2A2727"/>
<path d="M32.4746 28.9004V25.7559H30.7725C29.6719 25.7559 29.0088 26.3506 29.0088 27.3281C29.0088 28.3193 29.665 28.9004 30.7725 28.9004H32.4746ZM31.0596 30.4385L28.7148 34H26.4316L29.0293 30.1514C27.7578 29.7549 26.8965 28.709 26.8965 27.3213C26.8965 25.4209 28.2842 24.1357 30.4785 24.1357H34.5254V34H32.4746V30.4385H31.0596ZM39.1055 34.1572C37.2051 34.1572 35.9609 33.2275 35.8242 31.6758H37.7246C37.8955 32.2979 38.3672 32.6123 39.1055 32.6123C39.8984 32.6123 40.3359 32.2637 40.3359 31.7305C40.3359 31.1562 39.9258 30.8896 39.1123 30.8896H38.1006V29.5908H39.0576C39.7617 29.5908 40.124 29.3379 40.124 28.8184C40.124 28.3398 39.7754 28.0186 39.0713 28.0186C38.374 28.0186 37.9297 28.3262 37.8408 28.8799H35.9609C36.1045 27.4102 37.2666 26.5146 39.0576 26.5146C41.0127 26.5146 42.0654 27.2939 42.0654 28.5996C42.0654 29.3311 41.6484 29.9258 40.9648 30.1172V30.1719C41.8535 30.4043 42.3252 30.9922 42.3252 31.8057C42.3252 33.248 41.0947 34.1572 39.1055 34.1572ZM50.5078 34V26.6719H52.4971V34H50.5078ZM46.625 30.2607H45.5244V32.5098H46.625C47.3496 32.5098 47.8145 32.0518 47.8145 31.3818C47.8145 30.7119 47.3428 30.2607 46.625 30.2607ZM43.5352 34V26.6719H45.5244V28.791H46.9531C48.6826 28.791 49.79 29.8027 49.79 31.3955C49.79 32.9883 48.6826 34 46.9531 34H43.5352ZM57.7607 30.0625L60.8574 34H58.4443L55.9697 30.8555H55.915V34H53.9258V26.6719H55.915V29.6182H55.9697L58.4033 26.6719H60.6865L57.7607 30.0625ZM66.3809 34H64.4258V26.6719H66.3809V31.252H66.4355L69.3477 26.6719H71.3027V34H69.3477V29.3652H69.293L66.3809 34ZM77.5439 34V30.999H74.7275V34H72.7383V26.6719H74.7275V29.4883H77.5439V26.6719H79.5332V34H77.5439ZM86.9092 26.6719V28.1758H84.7285V34H82.7393V28.1758H80.5518V26.6719H86.9092ZM91.0791 27.9912C90.2041 27.9912 89.5752 28.6543 89.5068 29.5703H92.6172C92.5762 28.6338 91.9678 27.9912 91.0791 27.9912ZM92.6445 31.7578H94.4766C94.2578 33.1934 92.9453 34.1572 91.1338 34.1572C88.8779 34.1572 87.5244 32.7148 87.5244 30.3701C87.5244 28.0322 88.8916 26.5146 91.0586 26.5146C93.1914 26.5146 94.5381 27.957 94.5381 30.1855V30.7939H89.4863V30.917C89.4863 31.9629 90.1494 32.6807 91.168 32.6807C91.8994 32.6807 92.46 32.3184 92.6445 31.7578ZM99.9727 26.5557C101.832 26.5557 102.974 27.9707 102.974 30.3359C102.974 32.6943 101.839 34.1162 100.007 34.1162C98.9404 34.1162 98.1201 33.5967 97.7305 32.7695H97.6895V36.3926H95.6934V26.6719H97.6621V27.9502H97.7031C98.0996 27.0889 98.9131 26.5557 99.9727 26.5557ZM99.3027 32.5098C100.301 32.5098 100.93 31.6689 100.93 30.3359C100.93 29.0098 100.301 28.1553 99.3027 28.1553C98.3252 28.1553 97.6826 29.0234 97.6826 30.3359C97.6826 31.6621 98.3252 32.5098 99.3027 32.5098ZM107.875 32.5986V28.0664C106.679 28.1006 105.899 28.9414 105.899 30.3359C105.899 31.7373 106.665 32.5645 107.875 32.5986ZM111.758 30.3359C111.758 28.9277 110.985 28.1074 109.782 28.0664V32.5986C110.979 32.5645 111.758 31.7236 111.758 30.3359ZM107.854 34.1094C105.428 34.0547 103.883 32.6465 103.883 30.3291C103.883 28.0459 105.448 26.6172 107.854 26.5625V24.3477H109.803V26.5625C112.223 26.6172 113.768 28.0186 113.768 30.3359C113.768 32.6191 112.202 34.0547 109.803 34.1094V36.3926H107.854V34.1094ZM118.231 27.9912C117.356 27.9912 116.728 28.6543 116.659 29.5703H119.77C119.729 28.6338 119.12 27.9912 118.231 27.9912ZM119.797 31.7578H121.629C121.41 33.1934 120.098 34.1572 118.286 34.1572C116.03 34.1572 114.677 32.7148 114.677 30.3701C114.677 28.0322 116.044 26.5146 118.211 26.5146C120.344 26.5146 121.69 27.957 121.69 30.1855V30.7939H116.639V30.917C116.639 31.9629 117.302 32.6807 118.32 32.6807C119.052 32.6807 119.612 32.3184 119.797 31.7578ZM124.801 34H122.846V26.6719H124.801V31.252H124.855L127.768 26.6719H129.723V34H127.768V29.3652H127.713L124.801 34ZM123.939 23.3564H125.156C125.17 24.0879 125.628 24.6143 126.346 24.6143C127.057 24.6143 127.515 24.0879 127.528 23.3564H128.752C128.752 24.7031 127.781 25.6055 126.346 25.6055C124.903 25.6055 123.939 24.7031 123.939 23.3564ZM137.755 29.1738H135.889C135.725 28.5381 135.246 28.0801 134.487 28.0801C133.503 28.0801 132.895 28.9277 132.895 30.3291C132.895 31.7578 133.503 32.5918 134.494 32.5918C135.239 32.5918 135.731 32.1885 135.902 31.498H137.762C137.584 33.1182 136.333 34.1572 134.474 34.1572C132.272 34.1572 130.885 32.708 130.885 30.3291C130.885 27.9912 132.272 26.5146 134.46 26.5146C136.347 26.5146 137.563 27.6357 137.755 29.1738ZM141.699 32.6738C142.567 32.6738 143.285 32.1064 143.285 31.3135V30.7803L141.74 30.876C140.995 30.9307 140.571 31.2656 140.571 31.7852C140.571 32.332 141.022 32.6738 141.699 32.6738ZM141.043 34.1162C139.648 34.1162 138.589 33.2139 138.589 31.8945C138.589 30.5615 139.614 29.7891 141.439 29.6797L143.285 29.5703V29.085C143.285 28.4014 142.807 28.0049 142.055 28.0049C141.31 28.0049 140.838 28.374 140.742 28.9141H138.917C138.992 27.4922 140.202 26.5146 142.144 26.5146C144.023 26.5146 145.247 27.4854 145.247 28.9619V34H143.319V32.8789H143.278C142.868 33.6582 141.959 34.1162 141.043 34.1162Z" fill="white"/>
<path opacity="0.5" d="M203.621 25.5449H207.061C208.795 25.5449 209.99 26.6992 209.99 28.4395C209.99 30.1738 208.754 31.334 206.973 31.334H205.391V34H203.621V25.5449ZM205.391 26.9453V29.9512H206.586C207.6 29.9512 208.191 29.4121 208.191 28.4453C208.191 27.4844 207.605 26.9453 206.592 26.9453H205.391ZM211.871 36.3262C211.812 36.3262 211.279 36.3203 211.227 36.3086V34.9902C211.279 35.002 211.59 35.002 211.654 35.002C212.281 35.002 212.592 34.8027 212.709 34.3047C212.709 34.2812 212.773 34.0293 212.762 34.0059L210.576 27.7188H212.457L213.793 32.6289H213.822L215.158 27.7188H216.963L214.801 34.1406C214.262 35.752 213.477 36.3262 211.871 36.3262ZM223.18 29.8633H221.58C221.439 29.3184 221.029 28.9258 220.379 28.9258C219.535 28.9258 219.014 29.6523 219.014 30.8535C219.014 32.0781 219.535 32.793 220.385 32.793C221.023 32.793 221.445 32.4473 221.592 31.8555H223.186C223.033 33.2441 221.961 34.1348 220.367 34.1348C218.48 34.1348 217.291 32.8926 217.291 30.8535C217.291 28.8496 218.48 27.584 220.355 27.584C221.973 27.584 223.016 28.5449 223.18 29.8633ZM229.789 29.8633H228.189C228.049 29.3184 227.639 28.9258 226.988 28.9258C226.145 28.9258 225.623 29.6523 225.623 30.8535C225.623 32.0781 226.145 32.793 226.994 32.793C227.633 32.793 228.055 32.4473 228.201 31.8555H229.795C229.643 33.2441 228.57 34.1348 226.977 34.1348C225.09 34.1348 223.9 32.8926 223.9 30.8535C223.9 28.8496 225.09 27.584 226.965 27.584C228.582 27.584 229.625 28.5449 229.789 29.8633ZM234.031 30.625L236.686 34H234.617L232.496 31.3047H232.449V34H230.744V27.7188H232.449V30.2441H232.496L234.582 27.7188H236.539L234.031 30.625ZM239.041 34H237.365V27.7188H239.041V31.6445H239.088L241.584 27.7188H243.26V34H241.584V30.0273H241.537L239.041 34ZM246.166 34H244.49V27.7188H246.166V31.6445H246.213L248.709 27.7188H250.385V34H248.709V30.0273H248.662L246.166 34ZM245.428 24.877H246.471C246.482 25.5039 246.875 25.9551 247.49 25.9551C248.1 25.9551 248.492 25.5039 248.504 24.877H249.553C249.553 26.0312 248.721 26.8047 247.49 26.8047C246.254 26.8047 245.428 26.0312 245.428 24.877Z" fill="white"/>
<path opacity="0.5" d="M230.838 64H227.094V55.5449H230.773C232.361 55.5449 233.357 56.3594 233.357 57.6543C233.357 58.5801 232.666 59.3535 231.77 59.4883V59.5352C232.918 59.623 233.762 60.4609 233.762 61.5801C233.762 63.0684 232.643 64 230.838 64ZM228.863 56.8633V59.0605H230.135C231.078 59.0605 231.617 58.6445 231.617 57.9297C231.617 57.25 231.143 56.8633 230.316 56.8633H228.863ZM228.863 62.6816H230.387C231.406 62.6816 231.957 62.248 231.957 61.4395C231.957 60.6484 231.389 60.2266 230.346 60.2266H228.863V62.6816ZM238.027 60.625L240.682 64H238.613L236.492 61.3047H236.445V64H234.74V57.7188H236.445V60.2441H236.492L238.578 57.7188H240.535L238.027 60.625ZM243.617 60.9883C243.506 62.8516 242.996 64.0762 241.443 64.0762C241.18 64.0762 240.986 64.0293 240.898 63.9941V62.5527C240.969 62.5703 241.098 62.5938 241.268 62.5938C241.865 62.5938 242.047 61.8672 242.1 60.877L242.275 57.7188H247.039V64H245.334V59.0078H243.74L243.617 60.9883ZM249.33 64.0703C248.803 64.0703 248.387 63.6484 248.387 63.127C248.387 62.5996 248.803 62.1836 249.33 62.1836C249.852 62.1836 250.273 62.5996 250.273 63.127C250.273 63.6484 249.852 64.0703 249.33 64.0703Z" fill="white"/>
<path d="M28.5576 64.0889C28.1338 64.0889 27.7578 64.0205 27.7031 63.9863V62.3047C27.7715 62.3252 27.9561 62.3662 28.3047 62.3662C28.9062 62.3662 29.3506 62.1885 29.6992 61.6484L26.4248 54.1357H28.6123L30.7656 59.6182H30.8477L32.8984 54.1357H35.0723L32.0508 61.1768C31.1895 63.1797 30.3145 64.0889 28.5576 64.0889ZM38.6338 57.9365H37.4512V59.6387H38.5312C39.2627 59.6387 39.6592 59.3311 39.6592 58.7773C39.6592 58.2441 39.29 57.9365 38.6338 57.9365ZM38.6338 60.7939H37.4512V62.7354H38.7227C39.502 62.7354 39.9326 62.3936 39.9326 61.7578C39.9326 61.1221 39.4814 60.7939 38.6338 60.7939ZM35.4961 64V56.6719H39.167C40.6914 56.6719 41.6074 57.3623 41.6074 58.5176C41.6074 59.3037 41.0332 59.9873 40.2812 60.1035V60.1582C41.2588 60.2744 41.9355 60.958 41.9355 61.8809C41.9355 63.166 40.8965 64 39.2354 64H35.4961ZM46.4268 57.9912C45.5518 57.9912 44.9229 58.6543 44.8545 59.5703H47.9648C47.9238 58.6338 47.3154 57.9912 46.4268 57.9912ZM47.9922 61.7578H49.8242C49.6055 63.1934 48.293 64.1572 46.4814 64.1572C44.2256 64.1572 42.8721 62.7148 42.8721 60.3701C42.8721 58.0322 44.2393 56.5146 46.4062 56.5146C48.5391 56.5146 49.8857 57.957 49.8857 60.1855V60.7939H44.834V60.917C44.834 61.9629 45.4971 62.6807 46.5156 62.6807C47.2471 62.6807 47.8076 62.3184 47.9922 61.7578ZM55.833 62.4893V58.1689H53.6387L53.4746 60.4863C53.4199 61.2656 53.2695 61.9424 52.9414 62.4346V62.4893H55.833ZM52.1621 65.9004H50.3506V62.4893H50.9111C51.4443 62.1885 51.6494 61.3477 51.7178 60.3564L51.957 56.6719H57.8223V62.4893H58.9092V65.9004H57.0908V64H52.1621V65.9004ZM63.127 64.1572C60.9121 64.1572 59.4971 62.7354 59.4971 60.3291C59.4971 57.957 60.9326 56.5146 63.127 56.5146C65.3213 56.5146 66.7568 57.9502 66.7568 60.3291C66.7568 62.7422 65.3418 64.1572 63.127 64.1572ZM63.127 62.6328C64.1045 62.6328 64.7266 61.8057 64.7266 60.3359C64.7266 58.8799 64.0977 58.0391 63.127 58.0391C62.1562 58.0391 61.5205 58.8799 61.5205 60.3359C61.5205 61.8057 62.1426 62.6328 63.127 62.6328ZM69.7852 64H67.9121V56.6719H70.4961L72.4102 61.457H72.458L74.3721 56.6719H76.9287V64H75.0557V59.0986H75.0078L73.1074 63.5898H71.7266L69.833 59.0986H69.7852V64ZM81.0439 60.4863C80.9141 62.6602 80.3193 64.0889 78.5078 64.0889C78.2002 64.0889 77.9746 64.0342 77.8721 63.9932V62.3115C77.9541 62.332 78.1045 62.3594 78.3027 62.3594C79 62.3594 79.2119 61.5117 79.2734 60.3564L79.4785 56.6719H85.0361V64H83.0469V58.1758H81.1875L81.0439 60.4863ZM89.7666 57.9912C88.8916 57.9912 88.2627 58.6543 88.1943 59.5703H91.3047C91.2637 58.6338 90.6553 57.9912 89.7666 57.9912ZM91.332 61.7578H93.1641C92.9453 63.1934 91.6328 64.1572 89.8213 64.1572C87.5654 64.1572 86.2119 62.7148 86.2119 60.3701C86.2119 58.0322 87.5791 56.5146 89.7461 56.5146C91.8789 56.5146 93.2256 57.957 93.2256 60.1855V60.7939H88.1738V60.917C88.1738 61.9629 88.8369 62.6807 89.8555 62.6807C90.5869 62.6807 91.1475 62.3184 91.332 61.7578ZM99.1865 64V60.999H96.3701V64H94.3809V56.6719H96.3701V59.4883H99.1865V56.6719H101.176V64H99.1865ZM104.566 64H102.611V56.6719H104.566V61.252H104.621L107.533 56.6719H109.488V64H107.533V59.3652H107.479L104.566 64ZM113.966 60.2334H115.162V58.1553H113.966C113.262 58.1553 112.817 58.5723 112.817 59.2217C112.817 59.8096 113.269 60.2334 113.966 60.2334ZM115.162 64V61.6348H114.362L112.735 64H110.521L112.448 61.334C111.45 61.0195 110.835 60.2676 110.835 59.2148C110.835 57.6562 111.99 56.6719 113.768 56.6719H117.11V64H115.162Z" fill="white"/>
</g>
<defs>
<filter id="filter0_i_14_291" x="0" y="0" width="285" height="91" filterUnits="userSpaceOnUse" color-interpolation-filters="sRGB">
<feFlood flood-opacity="0" result="BackgroundImageFix"/>
<feBlend mode="normal" in="SourceGraphic" in2="BackgroundImageFix" result="shape"/>
<feColorMatrix in="SourceAlpha" type="matrix" values="0 0 0 0 0 0 0 0 0 0 0 0 0 0 0 0 0 0 127 0" result="hardAlpha"/>
<feOffset dx="1" dy="1"/>
<feGaussianBlur stdDeviation="1"/>
<feComposite in2="hardAlpha" operator="arithmetic" k2="-1" k3="1"/>
<feColorMatrix type="matrix" values="0 0 0 0 1 0 0 0 0 1 0 0 0 0 1 0 0 0 0.12 0"/>
<feBlend mode="normal" in2="shape" result="effect1_innerShadow_14_291"/>
</filter>
</defs>
</svg>
