<svg width="284" height="42" viewBox="0 0 284 42" fill="none" xmlns="http://www.w3.org/2000/svg">
<g filter="url(#filter0_i_10_655)">
<rect x="7" width="270" height="42" rx="15" fill="#2A2727"/>
<path d="M38.5215 25H36.7578V18.0098H33.0371V25H31.2617V16.5449H38.5215V25ZM44.8652 16.3984C47.3672 16.3984 48.9434 18.0801 48.9434 20.7754C48.9434 23.4648 47.3672 25.1465 44.8652 25.1465C42.3574 25.1465 40.7871 23.4648 40.7871 20.7754C40.7871 18.0801 42.3574 16.3984 44.8652 16.3984ZM44.8652 17.875C43.4824 17.875 42.5918 19 42.5918 20.7754C42.5918 22.5449 43.4766 23.6641 44.8652 23.6641C46.248 23.6641 47.1328 22.5449 47.1328 20.7754C47.1328 19 46.248 17.875 44.8652 17.875ZM54.9414 25.1875C52.4805 25.1875 50.9395 23.5 50.9395 20.7695C50.9395 18.0449 52.4922 16.3574 54.9414 16.3574C56.9102 16.3574 58.4219 17.5996 58.6445 19.3984H56.9043C56.6816 18.4668 55.9141 17.8633 54.9414 17.8633C53.6055 17.8633 52.7441 18.9824 52.7441 20.7637C52.7441 22.5684 53.5938 23.6816 54.9473 23.6816C55.9375 23.6816 56.6641 23.1367 56.9102 22.2344H58.6504C58.375 24.0391 56.9512 25.1875 54.9414 25.1875ZM69.8164 25H68.2402V19.293H68.1934L65.8965 24.918H64.7832L62.4863 19.293H62.4395V25H60.8633V16.5449H62.9141L65.3164 22.5391H65.3633L67.7656 16.5449H69.8164V25ZM76.1543 16.3984C78.6562 16.3984 80.2324 18.0801 80.2324 20.7754C80.2324 23.4648 78.6562 25.1465 76.1543 25.1465C73.6465 25.1465 72.0762 23.4648 72.0762 20.7754C72.0762 18.0801 73.6465 16.3984 76.1543 16.3984ZM76.1543 17.875C74.7715 17.875 73.8809 19 73.8809 20.7754C73.8809 22.5449 74.7656 23.6641 76.1543 23.6641C77.5371 23.6641 78.4219 22.5449 78.4219 20.7754C78.4219 19 77.5371 17.875 76.1543 17.875ZM85.873 25H84.1035V18.0039H81.6602V16.5449H88.3223V18.0039H85.873V25ZM90.418 16.5449H93.8574C95.5918 16.5449 96.7871 17.6992 96.7871 19.4395C96.7871 21.1738 95.5508 22.334 93.7695 22.334H92.1875V25H90.418V16.5449ZM92.1875 17.9453V20.9512H93.3828C94.3965 20.9512 94.9883 20.4121 94.9883 19.4453C94.9883 18.4844 94.4023 17.9453 93.3887 17.9453H92.1875ZM104.613 23.5352V25H99.0117V16.5449H104.613V18.0039H100.781V20.043H104.396V21.4023H100.781V23.5352H104.613ZM110.811 25H109.041V18.0039H106.598V16.5449H113.26V18.0039H110.811V25ZM115.355 25V16.5449H117.125V19.3809H118.766C120.547 19.3809 121.783 20.5117 121.783 22.1875C121.783 23.875 120.594 25 118.854 25H115.355ZM117.125 23.5879H118.385C119.393 23.5879 119.973 23.0957 119.973 22.1875C119.973 21.2734 119.387 20.7754 118.379 20.7754H117.125V23.5879ZM132.93 25V19.2812H132.859L129.021 25H127.316V16.5449H129.08V22.2695H129.15L132.988 16.5449H134.693V25H132.93ZM140.961 25.1875C138.5 25.1875 136.959 23.5 136.959 20.7695C136.959 18.0449 138.512 16.3574 140.961 16.3574C142.93 16.3574 144.441 17.5996 144.664 19.3984H142.924C142.701 18.4668 141.934 17.8633 140.961 17.8633C139.625 17.8633 138.764 18.9824 138.764 20.7637C138.764 22.5684 139.613 23.6816 140.967 23.6816C141.957 23.6816 142.684 23.1367 142.93 22.2344H144.67C144.395 24.0391 142.971 25.1875 140.961 25.1875ZM150.322 25H148.553V18.0039H146.109V16.5449H152.771V18.0039H150.322V25ZM158.178 16.3984C160.68 16.3984 162.256 18.0801 162.256 20.7754C162.256 23.4648 160.68 25.1465 158.178 25.1465C155.67 25.1465 154.1 23.4648 154.1 20.7754C154.1 18.0801 155.67 16.3984 158.178 16.3984ZM158.178 17.875C156.795 17.875 155.904 19 155.904 20.7754C155.904 22.5449 156.789 23.6641 158.178 23.6641C159.561 23.6641 160.445 22.5449 160.445 20.7754C160.445 19 159.561 17.875 158.178 17.875ZM164.516 16.5449H167.955C169.689 16.5449 170.885 17.6992 170.885 19.4395C170.885 21.1738 169.648 22.334 167.867 22.334H166.285V25H164.516V16.5449ZM166.285 17.9453V20.9512H167.48C168.494 20.9512 169.086 20.4121 169.086 19.4453C169.086 18.4844 168.5 17.9453 167.486 17.9453H166.285ZM178.723 25V19.2812H178.652L174.814 25H173.109V16.5449H174.873V22.2695H174.943L178.781 16.5449H180.486V25H178.723ZM189.994 25.2168C187.732 25.2168 186.256 23.7812 186.021 21.4375H184.785V25H183.016V16.5449H184.785V19.9785H186.033C186.309 17.7051 187.791 16.3281 189.994 16.3281C192.455 16.3281 193.996 18.0332 193.996 20.7695C193.996 23.5059 192.461 25.2168 189.994 25.2168ZM189.988 17.8281C188.652 17.8281 187.779 18.9707 187.779 20.7695C187.779 22.5625 188.635 23.7168 189.988 23.7168C191.33 23.7168 192.191 22.5625 192.191 20.7695C192.191 18.9707 191.33 17.8281 189.988 17.8281ZM208.594 25H207.018V19.293H206.971L204.674 24.918H203.561L201.264 19.293H201.217V25H199.641V16.5449H201.691L204.094 22.5391H204.141L206.543 16.5449H208.594V25ZM216.654 25L216.01 22.9492H213.039L212.395 25H210.578L213.514 16.5449H215.594L218.535 25H216.654ZM214.504 18.1621L213.42 21.625H215.629L214.545 18.1621H214.504ZM223.373 25H221.604V18.0039H219.16V16.5449H225.822V18.0039H223.373V25ZM234.779 25H233.01V21.5254H232.939C232.699 21.7129 232.014 22.082 230.982 22.082C228.902 22.082 227.754 20.7578 227.754 18.9473V16.5449H229.523V18.8125C229.523 19.9141 230.145 20.5645 231.305 20.5645C232.248 20.5645 232.781 20.2012 233.01 19.9727V16.5449H234.779V25ZM242.91 23.5352V25H237.309V16.5449H242.91V18.0039H239.078V20.043H242.693V21.4023H239.078V23.5352H242.91ZM250.93 25V19.2812H250.859L247.021 25H245.316V16.5449H247.08V22.2695H247.15L250.988 16.5449H252.693V25H250.93ZM246.969 14.2305H248C248.012 14.8223 248.416 15.2148 249.002 15.2148C249.588 15.2148 249.992 14.8223 250.004 14.2305H251.035C251.035 15.332 250.203 16.0469 249.002 16.0469C247.801 16.0469 246.969 15.332 246.969 14.2305Z" fill="white"/>
</g>
<defs>
<filter id="filter0_i_10_655" x="0" y="0" width="285" height="43" filterUnits="userSpaceOnUse" color-interpolation-filters="sRGB">
<feFlood flood-opacity="0" result="BackgroundImageFix"/>
<feBlend mode="normal" in="SourceGraphic" in2="BackgroundImageFix" result="shape"/>
<feColorMatrix in="SourceAlpha" type="matrix" values="0 0 0 0 0 0 0 0 0 0 0 0 0 0 0 0 0 0 127 0" result="hardAlpha"/>
<feOffset dx="1" dy="1"/>
<feGaussianBlur stdDeviation="1"/>
<feComposite in2="hardAlpha" operator="arithmetic" k2="-1" k3="1"/>
<feColorMatrix type="matrix" values="0 0 0 0 1 0 0 0 0 1 0 0 0 0 1 0 0 0 0.12 0"/>
<feBlend mode="normal" in2="shape" result="effect1_innerShadow_10_655"/>
</filter>
</defs>
</svg>
