<svg width="284" height="90" viewBox="0 0 284 90" fill="none" xmlns="http://www.w3.org/2000/svg">
<g filter="url(#filter0_i_14_337)">
<rect width="284" height="90" rx="20" fill="#2A2727"/>
<path d="M32.5879 32.291V34H26.0527V24.1357H32.5879V25.8379H28.1172V28.2168H32.335V29.8027H28.1172V32.291H32.5879ZM33.9072 34V26.6719H35.835V27.998H35.876C36.1836 27.1162 36.9697 26.5352 37.9678 26.5352C39.0273 26.5352 39.7656 27.082 40.0117 28.0391H40.0527C40.3809 27.1162 41.2559 26.5352 42.3291 26.5352C43.7646 26.5352 44.7285 27.5195 44.7285 28.9961V34H42.7324V29.4951C42.7324 28.6475 42.3086 28.1826 41.5361 28.1826C40.7773 28.1826 40.2783 28.7363 40.2783 29.5498V34H38.3574V29.4336C38.3574 28.6475 37.9131 28.1826 37.1748 28.1826C36.416 28.1826 35.9033 28.7568 35.9033 29.5771V34H33.9072ZM48.8232 32.6738C49.6914 32.6738 50.4092 32.1064 50.4092 31.3135V30.7803L48.8643 30.876C48.1191 30.9307 47.6953 31.2656 47.6953 31.7852C47.6953 32.332 48.1465 32.6738 48.8232 32.6738ZM48.167 34.1162C46.7725 34.1162 45.7129 33.2139 45.7129 31.8945C45.7129 30.5615 46.7383 29.7891 48.5635 29.6797L50.4092 29.5703V29.085C50.4092 28.4014 49.9307 28.0049 49.1787 28.0049C48.4336 28.0049 47.9619 28.374 47.8662 28.9141H46.041C46.1162 27.4922 47.3262 26.5146 49.2676 26.5146C51.1475 26.5146 52.3711 27.4854 52.3711 28.9619V34H50.4434V32.8789H50.4023C49.9922 33.6582 49.083 34.1162 48.167 34.1162ZM53.6973 34V26.6719H55.6934V34H53.6973ZM54.6953 25.8652C54.0938 25.8652 53.6289 25.4072 53.6289 24.833C53.6289 24.252 54.0938 23.8008 54.6953 23.8008C55.2969 23.8008 55.7617 24.252 55.7617 24.833C55.7617 25.4072 55.2969 25.8652 54.6953 25.8652ZM57.0742 34V24.1357H59.0703V34H57.0742Z" fill="white"/>
<path opacity="0.5" d="M127.982 34V29.0078H127.127V27.748H127.982V27.2734C127.982 26.043 128.562 25.4688 130.051 25.4688C130.367 25.4688 130.725 25.5039 130.924 25.5449V26.6758C130.801 26.6523 130.631 26.6406 130.461 26.6406C129.898 26.6406 129.652 26.8867 129.652 27.332V27.748H130.9V29.0078H129.693V34H127.982ZM131.832 34V27.7188H133.543V34H131.832ZM132.688 27.0273C132.172 27.0273 131.773 26.6348 131.773 26.1426C131.773 25.6445 132.172 25.2578 132.688 25.2578C133.203 25.2578 133.602 25.6445 133.602 26.1426C133.602 26.6348 133.203 27.0273 132.688 27.0273ZM137.586 32.6641C138.441 32.6641 138.986 31.9844 138.986 30.8477C138.986 29.7168 138.441 28.9902 137.586 28.9902C136.742 28.9902 136.209 29.7051 136.209 30.8477C136.209 31.9961 136.736 32.6641 137.586 32.6641ZM137.557 36.3672C135.904 36.3672 134.785 35.5645 134.65 34.4453H136.326C136.461 34.8789 136.953 35.1777 137.604 35.1777C138.488 35.1777 138.98 34.6855 138.98 33.959V32.8574H138.945C138.652 33.5254 137.914 33.9824 137.006 33.9824C135.471 33.9824 134.457 32.7988 134.457 30.8359C134.457 28.8438 135.441 27.6191 137.035 27.6191C137.938 27.6191 138.646 28.0938 138.975 28.8145H139.004V27.7188H140.691V33.9121C140.691 35.4121 139.438 36.3672 137.557 36.3672ZM141.811 34V27.7188H143.463V28.8555H143.498C143.762 28.0996 144.436 27.6016 145.291 27.6016C146.199 27.6016 146.832 28.0703 147.043 28.8906H147.078C147.359 28.0996 148.109 27.6016 149.029 27.6016C150.26 27.6016 151.086 28.4453 151.086 29.7109V34H149.375V30.1387C149.375 29.4121 149.012 29.0137 148.35 29.0137C147.699 29.0137 147.271 29.4883 147.271 30.1855V34H145.625V30.0859C145.625 29.4121 145.244 29.0137 144.611 29.0137C143.961 29.0137 143.521 29.5059 143.521 30.209V34H141.811ZM154.596 32.8633C155.34 32.8633 155.955 32.377 155.955 31.6973V31.2402L154.631 31.3223C153.992 31.3691 153.629 31.6562 153.629 32.1016C153.629 32.5703 154.016 32.8633 154.596 32.8633ZM154.033 34.0996C152.838 34.0996 151.93 33.3262 151.93 32.1953C151.93 31.0527 152.809 30.3906 154.373 30.2969L155.955 30.2031V29.7871C155.955 29.2012 155.545 28.8613 154.9 28.8613C154.262 28.8613 153.857 29.1777 153.775 29.6406H152.211C152.275 28.4219 153.312 27.584 154.977 27.584C156.588 27.584 157.637 28.416 157.637 29.6816V34H155.984V33.0391H155.949C155.598 33.707 154.818 34.0996 154.033 34.0996ZM164.545 27.7188V34H162.893V32.8691H162.857C162.547 33.6602 161.926 34.1172 160.977 34.1172C159.617 34.1172 158.715 33.2324 158.715 31.7676V27.7188H160.426V31.4102C160.426 32.248 160.842 32.6934 161.598 32.6934C162.359 32.6934 162.834 32.1484 162.834 31.3164V27.7188H164.545ZM165.553 29.5645C165.553 28.3691 166.59 27.584 168.201 27.584C169.777 27.584 170.803 28.3809 170.826 29.5996H169.25C169.215 29.0957 168.811 28.7852 168.178 28.7852C167.586 28.7852 167.199 29.0547 167.199 29.459C167.199 29.7695 167.469 29.9805 168.02 30.1094L169.221 30.3672C170.48 30.6484 170.99 31.1465 170.99 32.084C170.99 33.3203 169.854 34.1348 168.195 34.1348C166.52 34.1348 165.488 33.3262 165.395 32.1016H167.064C167.146 32.6289 167.562 32.9336 168.242 32.9336C168.893 32.9336 169.285 32.6758 169.285 32.2656C169.285 31.9492 169.074 31.7734 168.512 31.6387L167.352 31.3809C166.162 31.1113 165.553 30.4902 165.553 29.5645ZM174.664 28.8496C173.914 28.8496 173.375 29.418 173.316 30.2031H175.982C175.947 29.4004 175.426 28.8496 174.664 28.8496ZM176.006 32.0781H177.576C177.389 33.3086 176.264 34.1348 174.711 34.1348C172.777 34.1348 171.617 32.8984 171.617 30.8887C171.617 28.8848 172.789 27.584 174.646 27.584C176.475 27.584 177.629 28.8203 177.629 30.7305V31.252H173.299V31.3574C173.299 32.2539 173.867 32.8691 174.74 32.8691C175.367 32.8691 175.848 32.5586 176.006 32.0781ZM178.514 34V27.7188H180.166V28.8496H180.201C180.424 28.0527 180.957 27.6191 181.695 27.6191C181.895 27.6191 182.064 27.6484 182.182 27.6836V29.1895C182.041 29.1309 181.807 29.0898 181.561 29.0898C180.717 29.0898 180.225 29.6055 180.225 30.4902V34H178.514ZM187.561 29.0723C186.939 29.0723 186.57 29.582 186.57 30.4375C186.57 31.2871 186.939 31.8027 187.555 31.8027C188.188 31.8027 188.58 31.2812 188.58 30.4375C188.58 29.5938 188.188 29.0723 187.561 29.0723ZM187.754 25.5098C190.531 25.5098 192.482 27.2559 192.482 29.8633C192.482 31.709 191.609 32.8984 190.18 32.8984C189.453 32.8984 188.896 32.5469 188.768 31.9785H188.686C188.445 32.5645 187.953 32.8809 187.273 32.8809C186.055 32.8809 185.24 31.8906 185.24 30.4023C185.24 28.9785 186.043 28.0059 187.215 28.0059C187.848 28.0059 188.375 28.3223 188.604 28.8379H188.686V28.1348H189.875V31.2695C189.875 31.6738 190.062 31.9316 190.432 31.9316C191.006 31.9316 191.404 31.1992 191.404 29.9512C191.404 27.8184 189.934 26.4414 187.713 26.4414C185.457 26.4414 183.875 28.0703 183.875 30.4258C183.875 32.8926 185.521 34.334 187.936 34.334C188.562 34.334 189.201 34.252 189.535 34.1289V35.0664C189.078 35.2012 188.48 35.2832 187.848 35.2832C184.883 35.2832 182.797 33.4258 182.797 30.3965C182.797 27.4902 184.83 25.5098 187.754 25.5098ZM193.947 34V29.0078H193.092V27.748H193.947V27.2734C193.947 26.043 194.527 25.4688 196.016 25.4688C196.332 25.4688 196.689 25.5039 196.889 25.5449V26.6758C196.766 26.6523 196.596 26.6406 196.426 26.6406C195.863 26.6406 195.617 26.8867 195.617 27.332V27.748H196.865V29.0078H195.658V34H193.947ZM197.797 34V27.7188H199.508V34H197.797ZM198.652 27.0273C198.137 27.0273 197.738 26.6348 197.738 26.1426C197.738 25.6445 198.137 25.2578 198.652 25.2578C199.168 25.2578 199.566 25.6445 199.566 26.1426C199.566 26.6348 199.168 27.0273 198.652 27.0273ZM203.551 32.6641C204.406 32.6641 204.951 31.9844 204.951 30.8477C204.951 29.7168 204.406 28.9902 203.551 28.9902C202.707 28.9902 202.174 29.7051 202.174 30.8477C202.174 31.9961 202.701 32.6641 203.551 32.6641ZM203.521 36.3672C201.869 36.3672 200.75 35.5645 200.615 34.4453H202.291C202.426 34.8789 202.918 35.1777 203.568 35.1777C204.453 35.1777 204.945 34.6855 204.945 33.959V32.8574H204.91C204.617 33.5254 203.879 33.9824 202.971 33.9824C201.436 33.9824 200.422 32.7988 200.422 30.8359C200.422 28.8438 201.406 27.6191 203 27.6191C203.902 27.6191 204.611 28.0938 204.939 28.8145H204.969V27.7188H206.656V33.9121C206.656 35.4121 205.402 36.3672 203.521 36.3672ZM207.775 34V27.7188H209.428V28.8555H209.463C209.727 28.0996 210.4 27.6016 211.256 27.6016C212.164 27.6016 212.797 28.0703 213.008 28.8906H213.043C213.324 28.0996 214.074 27.6016 214.994 27.6016C216.225 27.6016 217.051 28.4453 217.051 29.7109V34H215.34V30.1387C215.34 29.4121 214.977 29.0137 214.314 29.0137C213.664 29.0137 213.236 29.4883 213.236 30.1855V34H211.59V30.0859C211.59 29.4121 211.209 29.0137 210.576 29.0137C209.926 29.0137 209.486 29.5059 209.486 30.209V34H207.775ZM220.561 32.8633C221.305 32.8633 221.92 32.377 221.92 31.6973V31.2402L220.596 31.3223C219.957 31.3691 219.594 31.6562 219.594 32.1016C219.594 32.5703 219.98 32.8633 220.561 32.8633ZM219.998 34.0996C218.803 34.0996 217.895 33.3262 217.895 32.1953C217.895 31.0527 218.773 30.3906 220.338 30.2969L221.92 30.2031V29.7871C221.92 29.2012 221.51 28.8613 220.865 28.8613C220.227 28.8613 219.822 29.1777 219.74 29.6406H218.176C218.24 28.4219 219.277 27.584 220.941 27.584C222.553 27.584 223.602 28.416 223.602 29.6816V34H221.949V33.0391H221.914C221.562 33.707 220.783 34.0996 219.998 34.0996ZM225.822 34.0703C225.295 34.0703 224.879 33.6484 224.879 33.127C224.879 32.5996 225.295 32.1836 225.822 32.1836C226.344 32.1836 226.766 32.5996 226.766 33.127C226.766 33.6484 226.344 34.0703 225.822 34.0703ZM233.486 30.0566H231.898C231.799 29.3945 231.359 28.9258 230.656 28.9258C229.812 28.9258 229.285 29.6406 229.285 30.8535C229.285 32.0898 229.812 32.793 230.662 32.793C231.348 32.793 231.793 32.3828 231.898 31.6973H233.492C233.404 33.1797 232.297 34.1348 230.645 34.1348C228.752 34.1348 227.551 32.9043 227.551 30.8535C227.551 28.8379 228.752 27.584 230.633 27.584C232.332 27.584 233.41 28.6328 233.486 30.0566ZM237.201 34.1348C235.303 34.1348 234.09 32.916 234.09 30.8535C234.09 28.8203 235.32 27.584 237.201 27.584C239.082 27.584 240.312 28.8145 240.312 30.8535C240.312 32.9219 239.1 34.1348 237.201 34.1348ZM237.201 32.8281C238.039 32.8281 238.572 32.1191 238.572 30.8594C238.572 29.6113 238.033 28.8906 237.201 28.8906C236.369 28.8906 235.824 29.6113 235.824 30.8594C235.824 32.1191 236.357 32.8281 237.201 32.8281ZM241.197 34V27.7188H242.85V28.8555H242.885C243.148 28.0996 243.822 27.6016 244.678 27.6016C245.586 27.6016 246.219 28.0703 246.43 28.8906H246.465C246.746 28.0996 247.496 27.6016 248.416 27.6016C249.646 27.6016 250.473 28.4453 250.473 29.7109V34H248.762V30.1387C248.762 29.4121 248.398 29.0137 247.736 29.0137C247.086 29.0137 246.658 29.4883 246.658 30.1855V34H245.012V30.0859C245.012 29.4121 244.631 29.0137 243.998 29.0137C243.348 29.0137 242.908 29.5059 242.908 30.209V34H241.197Z" fill="white"/>
<path opacity="0.5" d="M230.838 64H227.094V55.5449H230.773C232.361 55.5449 233.357 56.3594 233.357 57.6543C233.357 58.5801 232.666 59.3535 231.77 59.4883V59.5352C232.918 59.623 233.762 60.4609 233.762 61.5801C233.762 63.0684 232.643 64 230.838 64ZM228.863 56.8633V59.0605H230.135C231.078 59.0605 231.617 58.6445 231.617 57.9297C231.617 57.25 231.143 56.8633 230.316 56.8633H228.863ZM228.863 62.6816H230.387C231.406 62.6816 231.957 62.248 231.957 61.4395C231.957 60.6484 231.389 60.2266 230.346 60.2266H228.863V62.6816ZM238.027 60.625L240.682 64H238.613L236.492 61.3047H236.445V64H234.74V57.7188H236.445V60.2441H236.492L238.578 57.7188H240.535L238.027 60.625ZM243.617 60.9883C243.506 62.8516 242.996 64.0762 241.443 64.0762C241.18 64.0762 240.986 64.0293 240.898 63.9941V62.5527C240.969 62.5703 241.098 62.5938 241.268 62.5938C241.865 62.5938 242.047 61.8672 242.1 60.877L242.275 57.7188H247.039V64H245.334V59.0078H243.74L243.617 60.9883ZM249.33 64.0703C248.803 64.0703 248.387 63.6484 248.387 63.127C248.387 62.5996 248.803 62.1836 249.33 62.1836C249.852 62.1836 250.273 62.5996 250.273 63.127C250.273 63.6484 249.852 64.0703 249.33 64.0703Z" fill="white"/>
<path d="M25.8984 54.1357H29.9111C31.9346 54.1357 33.3291 55.4824 33.3291 57.5127C33.3291 59.5361 31.8867 60.8896 29.8086 60.8896H27.9629V64H25.8984V54.1357ZM27.9629 55.7695V59.2764H29.3574C30.54 59.2764 31.2305 58.6475 31.2305 57.5195C31.2305 56.3984 30.5469 55.7695 29.3643 55.7695H27.9629ZM37.417 62.6738C38.2852 62.6738 39.0029 62.1064 39.0029 61.3135V60.7803L37.458 60.876C36.7129 60.9307 36.2891 61.2656 36.2891 61.7852C36.2891 62.332 36.7402 62.6738 37.417 62.6738ZM36.7607 64.1162C35.3662 64.1162 34.3066 63.2139 34.3066 61.8945C34.3066 60.5615 35.332 59.7891 37.1572 59.6797L39.0029 59.5703V59.085C39.0029 58.4014 38.5244 58.0049 37.7725 58.0049C37.0273 58.0049 36.5557 58.374 36.46 58.9141H34.6348C34.71 57.4922 35.9199 56.5146 37.8613 56.5146C39.7412 56.5146 40.9648 57.4854 40.9648 58.9619V64H39.0371V62.8789H38.9961C38.5859 63.6582 37.6768 64.1162 36.7607 64.1162ZM48.9766 59.1738H47.1104C46.9463 58.5381 46.4678 58.0801 45.709 58.0801C44.7246 58.0801 44.1162 58.9277 44.1162 60.3291C44.1162 61.7578 44.7246 62.5918 45.7158 62.5918C46.4609 62.5918 46.9531 62.1885 47.124 61.498H48.9834C48.8057 63.1182 47.5547 64.1572 45.6953 64.1572C43.4941 64.1572 42.1064 62.708 42.1064 60.3291C42.1064 57.9912 43.4941 56.5146 45.6816 56.5146C47.5684 56.5146 48.7852 57.6357 48.9766 59.1738ZM56.6875 59.1738H54.8213C54.6572 58.5381 54.1787 58.0801 53.4199 58.0801C52.4355 58.0801 51.8271 58.9277 51.8271 60.3291C51.8271 61.7578 52.4355 62.5918 53.4268 62.5918C54.1719 62.5918 54.6641 62.1885 54.835 61.498H56.6943C56.5166 63.1182 55.2656 64.1572 53.4062 64.1572C51.2051 64.1572 49.8174 62.708 49.8174 60.3291C49.8174 57.9912 51.2051 56.5146 53.3926 56.5146C55.2793 56.5146 56.4961 57.6357 56.6875 59.1738ZM64.7744 64V56.6719H66.7637V64H64.7744ZM60.8916 60.2607H59.791V62.5098H60.8916C61.6162 62.5098 62.0811 62.0518 62.0811 61.3818C62.0811 60.7119 61.6094 60.2607 60.8916 60.2607ZM57.8018 64V56.6719H59.791V58.791H61.2197C62.9492 58.791 64.0566 59.8027 64.0566 61.3955C64.0566 62.9883 62.9492 64 61.2197 64H57.8018ZM70.8652 60.4863C70.7354 62.6602 70.1406 64.0889 68.3291 64.0889C68.0215 64.0889 67.7959 64.0342 67.6934 63.9932V62.3115C67.7754 62.332 67.9258 62.3594 68.124 62.3594C68.8213 62.3594 69.0332 61.5117 69.0947 60.3564L69.2998 56.6719H74.8574V64H72.8682V58.1758H71.0088L70.8652 60.4863ZM80.1348 60.0625L83.2314 64H80.8184L78.3438 60.8555H78.2891V64H76.2998V56.6719H78.2891V59.6182H78.3438L80.7773 56.6719H83.0605L80.1348 60.0625ZM86.7451 62.6738C87.6133 62.6738 88.3311 62.1064 88.3311 61.3135V60.7803L86.7861 60.876C86.041 60.9307 85.6172 61.2656 85.6172 61.7852C85.6172 62.332 86.0684 62.6738 86.7451 62.6738ZM86.0889 64.1162C84.6943 64.1162 83.6348 63.2139 83.6348 61.8945C83.6348 60.5615 84.6602 59.7891 86.4854 59.6797L88.3311 59.5703V59.085C88.3311 58.4014 87.8525 58.0049 87.1006 58.0049C86.3555 58.0049 85.8838 58.374 85.7881 58.9141H83.9629C84.0381 57.4922 85.248 56.5146 87.1895 56.5146C89.0693 56.5146 90.293 57.4854 90.293 58.9619V64H88.3652V62.8789H88.3242C87.9141 63.6582 87.0049 64.1162 86.0889 64.1162Z" fill="white"/>
</g>
<defs>
<filter id="filter0_i_14_337" x="0" y="0" width="285" height="91" filterUnits="userSpaceOnUse" color-interpolation-filters="sRGB">
<feFlood flood-opacity="0" result="BackgroundImageFix"/>
<feBlend mode="normal" in="SourceGraphic" in2="BackgroundImageFix" result="shape"/>
<feColorMatrix in="SourceAlpha" type="matrix" values="0 0 0 0 0 0 0 0 0 0 0 0 0 0 0 0 0 0 127 0" result="hardAlpha"/>
<feOffset dx="1" dy="1"/>
<feGaussianBlur stdDeviation="1"/>
<feComposite in2="hardAlpha" operator="arithmetic" k2="-1" k3="1"/>
<feColorMatrix type="matrix" values="0 0 0 0 1 0 0 0 0 1 0 0 0 0 1 0 0 0 0.12 0"/>
<feBlend mode="normal" in2="shape" result="effect1_innerShadow_14_337"/>
</filter>
</defs>
</svg>
