<svg width="24" height="24" viewBox="0 0 24 24" fill="none" xmlns="http://www.w3.org/2000/svg">
<g clip-path="url(#clip0_8_169)">
<path d="M21.75 20.6164L16.5 15.3333C17.75 13.8239 18.375 12.0629 18.375 10.1761C18.375 5.6478 14.75 2 10.25 2C5.625 2 2 5.6478 2 10.1761C2 14.7044 5.625 18.3522 10.125 18.3522C12 18.3522 13.75 17.7233 15.25 16.4654L20.5 21.7484C20.625 21.8742 20.875 22 21.125 22C21.375 22 21.625 21.8742 21.75 21.7484C21.875 21.6226 22 21.3711 22 21.1195C22 20.9937 21.875 20.7421 21.75 20.6164ZM10.125 16.5912C6.625 16.5912 3.75 13.6981 3.75 10.1761C3.75 6.65409 6.625 3.76101 10.125 3.76101C13.625 3.76101 16.5 6.65409 16.5 10.1761C16.5 13.8239 13.75 16.5912 10.125 16.5912Z" fill="white"/>
</g>
<defs>
<clipPath id="clip0_8_169">
<rect width="24" height="24" fill="white"/>
</clipPath>
</defs>
</svg>
