<svg width="236" height="181" viewBox="0 0 236 181" fill="none" xmlns="http://www.w3.org/2000/svg">
<path d="M32.8379 10H30.999V3.3418H30.9443L28.2646 9.9043H26.9658L24.2861 3.3418H24.2314V10H22.3926V0.135742H24.7852L27.5879 7.12891H27.6426L30.4453 0.135742H32.8379V10ZM41.417 10V2.67188H43.4062V10H41.417ZM37.5342 6.26074H36.4336V8.50977H37.5342C38.2588 8.50977 38.7236 8.05176 38.7236 7.38184C38.7236 6.71191 38.252 6.26074 37.5342 6.26074ZM34.4443 10V2.67188H36.4336V4.79102H37.8623C39.5918 4.79102 40.6992 5.80273 40.6992 7.39551C40.6992 8.98828 39.5918 10 37.8623 10H34.4443ZM51.8896 2.55566C53.749 2.55566 54.8906 3.9707 54.8906 6.33594C54.8906 8.69434 53.7559 10.1162 51.9238 10.1162C50.8574 10.1162 50.0371 9.59668 49.6475 8.76953H49.6064V12.3926H47.6104V2.67188H49.5791V3.9502H49.6201C50.0166 3.08887 50.8301 2.55566 51.8896 2.55566ZM51.2197 8.50977C52.2178 8.50977 52.8467 7.66895 52.8467 6.33594C52.8467 5.00977 52.2178 4.15527 51.2197 4.15527C50.2422 4.15527 49.5996 5.02344 49.5996 6.33594C49.5996 7.66211 50.2422 8.50977 51.2197 8.50977ZM59.3613 3.99121C58.4863 3.99121 57.8574 4.6543 57.7891 5.57031H60.8994C60.8584 4.63379 60.25 3.99121 59.3613 3.99121ZM60.9268 7.75781H62.7588C62.54 9.19336 61.2275 10.1572 59.416 10.1572C57.1602 10.1572 55.8066 8.71484 55.8066 6.37012C55.8066 4.03223 57.1738 2.51465 59.3408 2.51465C61.4736 2.51465 62.8203 3.95703 62.8203 6.18555V6.79395H57.7686V6.91699C57.7686 7.96289 58.4316 8.68066 59.4502 8.68066C60.1816 8.68066 60.7422 8.31836 60.9268 7.75781ZM69.082 4.17578H65.9648V10H63.9756V2.67188H69.082V4.17578ZM72.1924 10H70.2373V2.67188H72.1924V7.25195H72.2471L75.1592 2.67188H77.1143V10H75.1592V5.36523H75.1045L72.1924 10ZM85.1465 5.17383H83.2803C83.1162 4.53809 82.6377 4.08008 81.8789 4.08008C80.8945 4.08008 80.2861 4.92773 80.2861 6.3291C80.2861 7.75781 80.8945 8.5918 81.8857 8.5918C82.6309 8.5918 83.123 8.18848 83.2939 7.49805H85.1533C84.9756 9.11816 83.7246 10.1572 81.8652 10.1572C79.6641 10.1572 78.2764 8.70801 78.2764 6.3291C78.2764 3.99121 79.6641 2.51465 81.8516 2.51465C83.7383 2.51465 84.9551 3.63574 85.1465 5.17383ZM92.0234 2.67188V4.17578H89.8428V10H87.8535V4.17578H85.666V2.67188H92.0234ZM97.3213 2.55566C99.1807 2.55566 100.322 3.9707 100.322 6.33594C100.322 8.69434 99.1875 10.1162 97.3555 10.1162C96.2891 10.1162 95.4688 9.59668 95.0791 8.76953H95.0381V12.3926H93.042V2.67188H95.0107V3.9502H95.0518C95.4482 3.08887 96.2617 2.55566 97.3213 2.55566ZM96.6514 8.50977C97.6494 8.50977 98.2783 7.66895 98.2783 6.33594C98.2783 5.00977 97.6494 4.15527 96.6514 4.15527C95.6738 4.15527 95.0312 5.02344 95.0312 6.33594C95.0312 7.66211 95.6738 8.50977 96.6514 8.50977ZM103.46 10H101.505V2.67188H103.46V7.25195H103.515L106.427 2.67188H108.382V10H106.427V5.36523H106.372L103.46 10ZM114.097 2.55566C115.956 2.55566 117.098 3.9707 117.098 6.33594C117.098 8.69434 115.963 10.1162 114.131 10.1162C113.064 10.1162 112.244 9.59668 111.854 8.76953H111.813V12.3926H109.817V2.67188H111.786V3.9502H111.827C112.224 3.08887 113.037 2.55566 114.097 2.55566ZM113.427 8.50977C114.425 8.50977 115.054 7.66895 115.054 6.33594C115.054 5.00977 114.425 4.15527 113.427 4.15527C112.449 4.15527 111.807 5.02344 111.807 6.33594C111.807 7.66211 112.449 8.50977 113.427 8.50977ZM119.039 12.7139C118.971 12.7139 118.349 12.707 118.287 12.6934V11.1553C118.349 11.1689 118.711 11.1689 118.786 11.1689C119.518 11.1689 119.88 10.9365 120.017 10.3555C120.017 10.3281 120.092 10.0342 120.078 10.0068L117.528 2.67188H119.723L121.281 8.40039H121.315L122.874 2.67188H124.979L122.457 10.1641C121.828 12.0439 120.912 12.7139 119.039 12.7139ZM128.924 3.99121C128.049 3.99121 127.42 4.6543 127.352 5.57031H130.462C130.421 4.63379 129.812 3.99121 128.924 3.99121ZM130.489 7.75781H132.321C132.103 9.19336 130.79 10.1572 128.979 10.1572C126.723 10.1572 125.369 8.71484 125.369 6.37012C125.369 4.03223 126.736 2.51465 128.903 2.51465C131.036 2.51465 132.383 3.95703 132.383 6.18555V6.79395H127.331V6.91699C127.331 7.96289 127.994 8.68066 129.013 8.68066C129.744 8.68066 130.305 8.31836 130.489 7.75781ZM135.411 10H133.538V2.67188H136.122L138.036 7.45703H138.084L139.998 2.67188H142.555V10H140.682V5.09863H140.634L138.733 9.58984H137.353L135.459 5.09863H135.411V10ZM148.728 10H146.772V2.67188H148.728V7.25195H148.782L151.694 2.67188H153.649V10H151.694V5.36523H151.64L148.728 10ZM159.815 10H157.86V2.67188H159.815V7.25195H159.87L162.782 2.67188H164.737V10H162.782V5.36523H162.728L159.815 10ZM169.14 10.1572C167.239 10.1572 165.995 9.22754 165.858 7.67578H167.759C167.93 8.29785 168.401 8.6123 169.14 8.6123C169.933 8.6123 170.37 8.26367 170.37 7.73047C170.37 7.15625 169.96 6.88965 169.146 6.88965H168.135V5.59082H169.092C169.796 5.59082 170.158 5.33789 170.158 4.81836C170.158 4.33984 169.81 4.01855 169.105 4.01855C168.408 4.01855 167.964 4.32617 167.875 4.87988H165.995C166.139 3.41016 167.301 2.51465 169.092 2.51465C171.047 2.51465 172.1 3.29395 172.1 4.59961C172.1 5.33105 171.683 5.92578 170.999 6.11719V6.17188C171.888 6.4043 172.359 6.99219 172.359 7.80566C172.359 9.24805 171.129 10.1572 169.14 10.1572ZM174.328 12.7139C174.26 12.7139 173.638 12.707 173.576 12.6934V11.1553C173.638 11.1689 174 11.1689 174.075 11.1689C174.807 11.1689 175.169 10.9365 175.306 10.3555C175.306 10.3281 175.381 10.0342 175.367 10.0068L172.817 2.67188H175.012L176.57 8.40039H176.604L178.163 2.67188H180.269L177.746 10.1641C177.117 12.0439 176.201 12.7139 174.328 12.7139ZM187.624 10H185.635V6.95117H185.56C185.156 7.38867 184.521 7.68262 183.68 7.68262C182.005 7.68262 180.993 6.63672 180.993 4.97559V2.67188H182.982V4.68848C182.982 5.5293 183.454 6.02832 184.261 6.02832C184.931 6.02832 185.389 5.76855 185.635 5.44727V2.67188H187.624V10ZM191.89 8.67383C192.758 8.67383 193.476 8.10645 193.476 7.31348V6.78027L191.931 6.87598C191.186 6.93066 190.762 7.26562 190.762 7.78516C190.762 8.33203 191.213 8.67383 191.89 8.67383ZM191.233 10.1162C189.839 10.1162 188.779 9.21387 188.779 7.89453C188.779 6.56152 189.805 5.78906 191.63 5.67969L193.476 5.57031V5.08496C193.476 4.40137 192.997 4.00488 192.245 4.00488C191.5 4.00488 191.028 4.37402 190.933 4.91406H189.107C189.183 3.49219 190.393 2.51465 192.334 2.51465C194.214 2.51465 195.438 3.48535 195.438 4.96191V10H193.51V8.87891H193.469C193.059 9.6582 192.149 10.1162 191.233 10.1162ZM200.141 3.99121C199.266 3.99121 198.637 4.6543 198.568 5.57031H201.679C201.638 4.63379 201.029 3.99121 200.141 3.99121ZM201.706 7.75781H203.538C203.319 9.19336 202.007 10.1572 200.195 10.1572C197.939 10.1572 196.586 8.71484 196.586 6.37012C196.586 4.03223 197.953 2.51465 200.12 2.51465C202.253 2.51465 203.6 3.95703 203.6 6.18555V6.79395H198.548V6.91699C198.548 7.96289 199.211 8.68066 200.229 8.68066C200.961 8.68066 201.521 8.31836 201.706 7.75781ZM206.628 10H204.755V2.67188H207.339L209.253 7.45703H209.301L211.215 2.67188H213.771V10H211.898V5.09863H211.851L209.95 9.58984H208.569L206.676 5.09863H206.628V10ZM8.71387 38H6.75879V30.6719H8.71387V35.252H8.76855L11.6807 30.6719H13.6357V38H11.6807V33.3652H11.626L8.71387 38ZM19.877 38V34.999H17.0605V38H15.0713V30.6719H17.0605V33.4883H19.877V30.6719H21.8662V38H19.877ZM27.0205 36.5986V32.0664C25.8242 32.1006 25.0449 32.9414 25.0449 34.3359C25.0449 35.7373 25.8105 36.5645 27.0205 36.5986ZM30.9033 34.3359C30.9033 32.9277 30.1309 32.1074 28.9277 32.0664V36.5986C30.124 36.5645 30.9033 35.7236 30.9033 34.3359ZM27 38.1094C24.5732 38.0547 23.0283 36.6465 23.0283 34.3291C23.0283 32.0459 24.5938 30.6172 27 30.5625V28.3477H28.9482V30.5625C31.3682 30.6172 32.9131 32.0186 32.9131 34.3359C32.9131 36.6191 31.3477 38.0547 28.9482 38.1094V40.3926H27V38.1094ZM37.4521 38.1572C35.2373 38.1572 33.8223 36.7354 33.8223 34.3291C33.8223 31.957 35.2578 30.5146 37.4521 30.5146C39.6465 30.5146 41.082 31.9502 41.082 34.3291C41.082 36.7422 39.667 38.1572 37.4521 38.1572ZM37.4521 36.6328C38.4297 36.6328 39.0518 35.8057 39.0518 34.3359C39.0518 32.8799 38.4229 32.0391 37.4521 32.0391C36.4814 32.0391 35.8457 32.8799 35.8457 34.3359C35.8457 35.8057 36.4678 36.6328 37.4521 36.6328ZM46.5166 30.5557C48.376 30.5557 49.5176 31.9707 49.5176 34.3359C49.5176 36.6943 48.3828 38.1162 46.5508 38.1162C45.4844 38.1162 44.6641 37.5967 44.2744 36.7695H44.2334V40.3926H42.2373V30.6719H44.2061V31.9502H44.2471C44.6436 31.0889 45.457 30.5557 46.5166 30.5557ZM45.8467 36.5098C46.8447 36.5098 47.4736 35.6689 47.4736 34.3359C47.4736 33.0098 46.8447 32.1553 45.8467 32.1553C44.8691 32.1553 44.2266 33.0234 44.2266 34.3359C44.2266 35.6621 44.8691 36.5098 45.8467 36.5098ZM52.5732 38H50.7002V30.6719H53.2842L55.1982 35.457H55.2461L57.1602 30.6719H59.7168V38H57.8438V33.0986H57.7959L55.8955 37.5898H54.5146L52.6211 33.0986H52.5732V38ZM63.9893 36.6738C64.8574 36.6738 65.5752 36.1064 65.5752 35.3135V34.7803L64.0303 34.876C63.2852 34.9307 62.8613 35.2656 62.8613 35.7852C62.8613 36.332 63.3125 36.6738 63.9893 36.6738ZM63.333 38.1162C61.9385 38.1162 60.8789 37.2139 60.8789 35.8945C60.8789 34.5615 61.9043 33.7891 63.7295 33.6797L65.5752 33.5703V33.085C65.5752 32.4014 65.0967 32.0049 64.3447 32.0049C63.5996 32.0049 63.1279 32.374 63.0322 32.9141H61.207C61.2822 31.4922 62.4922 30.5146 64.4336 30.5146C66.3135 30.5146 67.5371 31.4854 67.5371 32.9619V38H65.6094V36.8789H65.5684C65.1582 37.6582 64.249 38.1162 63.333 38.1162ZM76.752 39.9004H74.9336V38H68.9521V30.6719H70.9414V36.4893H73.6553V30.6719H75.6445V36.4893H76.752V39.9004ZM79.6025 38H77.6475V30.6719H79.6025V35.252H79.6572L82.5693 30.6719H84.5244V38H82.5693V33.3652H82.5146L79.6025 38ZM92.5566 38.1572C90.5537 38.1572 89.2412 37.002 89.002 34.999H87.9492V38H85.96V30.6719H87.9492V33.4883H89.0293C89.3301 31.6152 90.6289 30.5146 92.5566 30.5146C94.7715 30.5146 96.1592 31.9365 96.1592 34.3291C96.1592 36.749 94.792 38.1572 92.5566 38.1572ZM92.5498 36.585C93.5342 36.585 94.1152 35.7715 94.1152 34.3359C94.1152 32.9072 93.5342 32.0801 92.5498 32.0801C91.5723 32.0801 90.9844 32.9072 90.9844 34.3359C90.9844 35.7715 91.5654 36.585 92.5498 36.585ZM103.46 38.1572C101.245 38.1572 99.8301 36.7354 99.8301 34.3291C99.8301 31.957 101.266 30.5146 103.46 30.5146C105.654 30.5146 107.09 31.9502 107.09 34.3291C107.09 36.7422 105.675 38.1572 103.46 38.1572ZM103.46 36.6328C104.438 36.6328 105.06 35.8057 105.06 34.3359C105.06 32.8799 104.431 32.0391 103.46 32.0391C102.489 32.0391 101.854 32.8799 101.854 34.3359C101.854 35.8057 102.476 36.6328 103.46 36.6328ZM114.855 34.0625L117.952 38H115.539L113.064 34.8555H113.01V38H111.021V30.6719H113.01V33.6182H113.064L115.498 30.6719H117.781L114.855 34.0625ZM121.466 36.6738C122.334 36.6738 123.052 36.1064 123.052 35.3135V34.7803L121.507 34.876C120.762 34.9307 120.338 35.2656 120.338 35.7852C120.338 36.332 120.789 36.6738 121.466 36.6738ZM120.81 38.1162C119.415 38.1162 118.355 37.2139 118.355 35.8945C118.355 34.5615 119.381 33.7891 121.206 33.6797L123.052 33.5703V33.085C123.052 32.4014 122.573 32.0049 121.821 32.0049C121.076 32.0049 120.604 32.374 120.509 32.9141H118.684C118.759 31.4922 119.969 30.5146 121.91 30.5146C123.79 30.5146 125.014 31.4854 125.014 32.9619V38H123.086V36.8789H123.045C122.635 37.6582 121.726 38.1162 120.81 38.1162ZM134.242 34.083L137.052 38H134.68L132.444 34.8555H132.39V38H130.421V34.8555H130.373L128.131 38H125.786L128.575 34.1172L125.882 30.6719H128.172L130.373 33.6182H130.421V30.6719H132.39V33.6182H132.444L134.639 30.6719H136.908L134.242 34.083ZM142.746 36.4893V32.1689H140.552L140.388 34.4863C140.333 35.2656 140.183 35.9424 139.854 36.4346V36.4893H142.746ZM139.075 39.9004H137.264V36.4893H137.824C138.357 36.1885 138.562 35.3477 138.631 34.3564L138.87 30.6719H144.735V36.4893H145.822V39.9004H144.004V38H139.075V39.9004ZM150.04 38.1572C147.825 38.1572 146.41 36.7354 146.41 34.3291C146.41 31.957 147.846 30.5146 150.04 30.5146C152.234 30.5146 153.67 31.9502 153.67 34.3291C153.67 36.7422 152.255 38.1572 150.04 38.1572ZM150.04 36.6328C151.018 36.6328 151.64 35.8057 151.64 34.3359C151.64 32.8799 151.011 32.0391 150.04 32.0391C149.069 32.0391 148.434 32.8799 148.434 34.3359C148.434 35.8057 149.056 36.6328 150.04 36.6328ZM156.78 38H154.825V30.6719H156.78V35.252H156.835L159.747 30.6719H161.702V38H159.747V33.3652H159.692L156.78 38ZM155.919 27.3564H157.136C157.149 28.0879 157.607 28.6143 158.325 28.6143C159.036 28.6143 159.494 28.0879 159.508 27.3564H160.731C160.731 28.7031 159.761 29.6055 158.325 29.6055C156.883 29.6055 155.919 28.7031 155.919 27.3564ZM169.276 38.1572C167.062 38.1572 165.646 36.7354 165.646 34.3291C165.646 31.957 167.082 30.5146 169.276 30.5146C171.471 30.5146 172.906 31.9502 172.906 34.3291C172.906 36.7422 171.491 38.1572 169.276 38.1572ZM169.276 36.6328C170.254 36.6328 170.876 35.8057 170.876 34.3359C170.876 32.8799 170.247 32.0391 169.276 32.0391C168.306 32.0391 167.67 32.8799 167.67 34.3359C167.67 35.8057 168.292 36.6328 169.276 36.6328ZM179.797 30.6719V32.1758H177.616V38H175.627V32.1758H173.439V30.6719H179.797ZM184.65 34.0625L187.747 38H185.334L182.859 34.8555H182.805V38H180.815V30.6719H182.805V33.6182H182.859L185.293 30.6719H187.576L184.65 34.0625ZM192.819 30.5557C194.679 30.5557 195.82 31.9707 195.82 34.3359C195.82 36.6943 194.686 38.1162 192.854 38.1162C191.787 38.1162 190.967 37.5967 190.577 36.7695H190.536V40.3926H188.54V30.6719H190.509V31.9502H190.55C190.946 31.0889 191.76 30.5557 192.819 30.5557ZM192.149 36.5098C193.147 36.5098 193.776 35.6689 193.776 34.3359C193.776 33.0098 193.147 32.1553 192.149 32.1553C191.172 32.1553 190.529 33.0234 190.529 34.3359C190.529 35.6621 191.172 36.5098 192.149 36.5098ZM203.976 38V30.6719H205.965V38H203.976ZM200.093 34.2607H198.992V36.5098H200.093C200.817 36.5098 201.282 36.0518 201.282 35.3818C201.282 34.7119 200.811 34.2607 200.093 34.2607ZM197.003 38V30.6719H198.992V32.791H200.421C202.15 32.791 203.258 33.8027 203.258 35.3955C203.258 36.9883 202.15 38 200.421 38H197.003ZM213.334 30.6719V32.1758H211.153V38H209.164V32.1758H206.977V30.6719H213.334ZM217.579 38.1572C215.364 38.1572 213.949 36.7354 213.949 34.3291C213.949 31.957 215.385 30.5146 217.579 30.5146C219.773 30.5146 221.209 31.9502 221.209 34.3291C221.209 36.7422 219.794 38.1572 217.579 38.1572ZM217.579 36.6328C218.557 36.6328 219.179 35.8057 219.179 34.3359C219.179 32.8799 218.55 32.0391 217.579 32.0391C216.608 32.0391 215.973 32.8799 215.973 34.3359C215.973 35.8057 216.595 36.6328 217.579 36.6328ZM224.319 38H222.364V30.6719H224.319V35.252H224.374L227.286 30.6719H229.241V38H227.286V33.3652H227.231L224.319 38ZM223.458 27.3564H224.675C224.688 28.0879 225.146 28.6143 225.864 28.6143C226.575 28.6143 227.033 28.0879 227.047 27.3564H228.271C228.271 28.7031 227.3 29.6055 225.864 29.6055C224.422 29.6055 223.458 28.7031 223.458 27.3564ZM4.91992 66H2.96484V58.6719H4.91992V63.252H4.97461L7.88672 58.6719H9.8418V66H7.88672V61.3652H7.83203L4.91992 66ZM16.3838 60.1758H13.2666V66H11.2773V58.6719H16.3838V60.1758ZM21.8184 58.5557C23.6777 58.5557 24.8193 59.9707 24.8193 62.3359C24.8193 64.6943 23.6846 66.1162 21.8525 66.1162C20.7861 66.1162 19.9658 65.5967 19.5762 64.7695H19.5352V68.3926H17.5391V58.6719H19.5078V59.9502H19.5488C19.9453 59.0889 20.7588 58.5557 21.8184 58.5557ZM21.1484 64.5098C22.1465 64.5098 22.7754 63.6689 22.7754 62.3359C22.7754 61.0098 22.1465 60.1553 21.1484 60.1553C20.1709 60.1553 19.5283 61.0234 19.5283 62.3359C19.5283 63.6621 20.1709 64.5098 21.1484 64.5098ZM29.29 59.9912C28.415 59.9912 27.7861 60.6543 27.7178 61.5703H30.8281C30.7871 60.6338 30.1787 59.9912 29.29 59.9912ZM30.8555 63.7578H32.6875C32.4688 65.1934 31.1562 66.1572 29.3447 66.1572C27.0889 66.1572 25.7354 64.7148 25.7354 62.3701C25.7354 60.0322 27.1025 58.5146 29.2695 58.5146C31.4023 58.5146 32.749 59.957 32.749 62.1855V62.7939H27.6973V62.917C27.6973 63.9629 28.3604 64.6807 29.3789 64.6807C30.1104 64.6807 30.6709 64.3184 30.8555 63.7578ZM35.3057 68.1602H33.8086L34.3213 64.3047H36.2217L35.3057 68.1602ZM44.4932 66V60.1758H41.7451V66H39.7559V58.6719H46.4824V66H44.4932ZM52.1973 58.5557C54.0566 58.5557 55.1982 59.9707 55.1982 62.3359C55.1982 64.6943 54.0635 66.1162 52.2314 66.1162C51.165 66.1162 50.3447 65.5967 49.9551 64.7695H49.9141V68.3926H47.918V58.6719H49.8867V59.9502H49.9277C50.3242 59.0889 51.1377 58.5557 52.1973 58.5557ZM51.5273 64.5098C52.5254 64.5098 53.1543 63.6689 53.1543 62.3359C53.1543 61.0098 52.5254 60.1553 51.5273 60.1553C50.5498 60.1553 49.9072 61.0234 49.9072 62.3359C49.9072 63.6621 50.5498 64.5098 51.5273 64.5098ZM58.3359 66H56.3809V58.6719H58.3359V63.252H58.3906L61.3027 58.6719H63.2578V66H61.3027V61.3652H61.248L58.3359 66ZM66.5664 66H64.6934V58.6719H67.2773L69.1914 63.457H69.2393L71.1533 58.6719H73.71V66H71.8369V61.0986H71.7891L69.8887 65.5898H68.5078L66.6143 61.0986H66.5664V66ZM78.4404 59.9912C77.5654 59.9912 76.9365 60.6543 76.8682 61.5703H79.9785C79.9375 60.6338 79.3291 59.9912 78.4404 59.9912ZM80.0059 63.7578H81.8379C81.6191 65.1934 80.3066 66.1572 78.4951 66.1572C76.2393 66.1572 74.8857 64.7148 74.8857 62.3701C74.8857 60.0322 76.2529 58.5146 78.4199 58.5146C80.5527 58.5146 81.8994 59.957 81.8994 62.1855V62.7939H76.8477V62.917C76.8477 63.9629 77.5107 64.6807 78.5293 64.6807C79.2607 64.6807 79.8213 64.3184 80.0059 63.7578ZM87.8604 66V62.999H85.0439V66H83.0547V58.6719H85.0439V61.4883H87.8604V58.6719H89.8496V66H87.8604ZM94.3271 62.2334H95.5234V60.1553H94.3271C93.623 60.1553 93.1787 60.5723 93.1787 61.2217C93.1787 61.8096 93.6299 62.2334 94.3271 62.2334ZM95.5234 66V63.6348H94.7236L93.0967 66H90.8818L92.8096 63.334C91.8115 63.0195 91.1963 62.2676 91.1963 61.2148C91.1963 59.6562 92.3516 58.6719 94.1289 58.6719H97.4717V66H95.5234ZM101.956 62.2334H103.152V60.1553H101.956C101.252 60.1553 100.808 60.5723 100.808 61.2217C100.808 61.8096 101.259 62.2334 101.956 62.2334ZM103.152 66V63.6348H102.353L100.726 66H98.5107L100.438 63.334C99.4404 63.0195 98.8252 62.2676 98.8252 61.2148C98.8252 59.6562 99.9805 58.6719 101.758 58.6719H105.101V66H103.152ZM112.606 59.9912C111.731 59.9912 111.103 60.6543 111.034 61.5703H114.145C114.104 60.6338 113.495 59.9912 112.606 59.9912ZM114.172 63.7578H116.004C115.785 65.1934 114.473 66.1572 112.661 66.1572C110.405 66.1572 109.052 64.7148 109.052 62.3701C109.052 60.0322 110.419 58.5146 112.586 58.5146C114.719 58.5146 116.065 59.957 116.065 62.1855V62.7939H111.014V62.917C111.014 63.9629 111.677 64.6807 112.695 64.6807C113.427 64.6807 113.987 64.3184 114.172 63.7578ZM120.509 59.9912C119.634 59.9912 119.005 60.6543 118.937 61.5703H122.047C122.006 60.6338 121.397 59.9912 120.509 59.9912ZM122.074 63.7578H123.906C123.688 65.1934 122.375 66.1572 120.563 66.1572C118.308 66.1572 116.954 64.7148 116.954 62.3701C116.954 60.0322 118.321 58.5146 120.488 58.5146C122.621 58.5146 123.968 59.957 123.968 62.1855V62.7939H118.916V62.917C118.916 63.9629 119.579 64.6807 120.598 64.6807C121.329 64.6807 121.89 64.3184 122.074 63.7578ZM119.094 57.6602C118.574 57.6602 118.178 57.2637 118.178 56.7715C118.178 56.2793 118.574 55.8828 119.094 55.8828C119.613 55.8828 120.01 56.2793 120.01 56.7715C120.01 57.2637 119.613 57.6602 119.094 57.6602ZM121.883 57.6602C121.363 57.6602 120.967 57.2637 120.967 56.7715C120.967 56.2793 121.363 55.8828 121.883 55.8828C122.402 55.8828 122.799 56.2793 122.799 56.7715C122.799 57.2637 122.402 57.6602 121.883 57.6602ZM132.8 64.4893V60.1689H130.605L130.441 62.4863C130.387 63.2656 130.236 63.9424 129.908 64.4346V64.4893H132.8ZM129.129 67.9004H127.317V64.4893H127.878C128.411 64.1885 128.616 63.3477 128.685 62.3564L128.924 58.6719H134.789V64.4893H135.876V67.9004H134.058V66H129.129V67.9004ZM139.513 62.4863C139.383 64.6602 138.788 66.0889 136.977 66.0889C136.669 66.0889 136.443 66.0342 136.341 65.9932V64.3115C136.423 64.332 136.573 64.3594 136.771 64.3594C137.469 64.3594 137.681 63.5117 137.742 62.3564L137.947 58.6719H143.505V66H141.516V60.1758H139.656L139.513 62.4863ZM147.989 62.2334H149.186V60.1553H147.989C147.285 60.1553 146.841 60.5723 146.841 61.2217C146.841 61.8096 147.292 62.2334 147.989 62.2334ZM149.186 66V63.6348H148.386L146.759 66H144.544L146.472 63.334C145.474 63.0195 144.858 62.2676 144.858 61.2148C144.858 59.6562 146.014 58.6719 147.791 58.6719H151.134V66H149.186ZM159.631 58.5557C161.49 58.5557 162.632 59.9707 162.632 62.3359C162.632 64.6943 161.497 66.1162 159.665 66.1162C158.599 66.1162 157.778 65.5967 157.389 64.7695H157.348V68.3926H155.352V58.6719H157.32V59.9502H157.361C157.758 59.0889 158.571 58.5557 159.631 58.5557ZM158.961 64.5098C159.959 64.5098 160.588 63.6689 160.588 62.3359C160.588 61.0098 159.959 60.1553 158.961 60.1553C157.983 60.1553 157.341 61.0234 157.341 62.3359C157.341 63.6621 157.983 64.5098 158.961 64.5098ZM166.645 64.6738C167.513 64.6738 168.23 64.1064 168.23 63.3135V62.7803L166.686 62.876C165.94 62.9307 165.517 63.2656 165.517 63.7852C165.517 64.332 165.968 64.6738 166.645 64.6738ZM165.988 66.1162C164.594 66.1162 163.534 65.2139 163.534 63.8945C163.534 62.5615 164.56 61.7891 166.385 61.6797L168.23 61.5703V61.085C168.23 60.4014 167.752 60.0049 167 60.0049C166.255 60.0049 165.783 60.374 165.688 60.9141H163.862C163.938 59.4922 165.147 58.5146 167.089 58.5146C168.969 58.5146 170.192 59.4854 170.192 60.9619V66H168.265V64.8789H168.224C167.813 65.6582 166.904 66.1162 165.988 66.1162ZM174.574 66.1572C172.674 66.1572 171.43 65.2275 171.293 63.6758H173.193C173.364 64.2979 173.836 64.6123 174.574 64.6123C175.367 64.6123 175.805 64.2637 175.805 63.7305C175.805 63.1562 175.395 62.8896 174.581 62.8896H173.569V61.5908H174.526C175.23 61.5908 175.593 61.3379 175.593 60.8184C175.593 60.3398 175.244 60.0186 174.54 60.0186C173.843 60.0186 173.398 60.3262 173.31 60.8799H171.43C171.573 59.4102 172.735 58.5146 174.526 58.5146C176.481 58.5146 177.534 59.2939 177.534 60.5996C177.534 61.3311 177.117 61.9258 176.434 62.1172V62.1719C177.322 62.4043 177.794 62.9922 177.794 63.8057C177.794 65.248 176.563 66.1572 174.574 66.1572ZM183.283 58.5557C185.143 58.5557 186.284 59.9707 186.284 62.3359C186.284 64.6943 185.149 66.1162 183.317 66.1162C182.251 66.1162 181.431 65.5967 181.041 64.7695H181V68.3926H179.004V58.6719H180.973V59.9502H181.014C181.41 59.0889 182.224 58.5557 183.283 58.5557ZM182.613 64.5098C183.611 64.5098 184.24 63.6689 184.24 62.3359C184.24 61.0098 183.611 60.1553 182.613 60.1553C181.636 60.1553 180.993 61.0234 180.993 62.3359C180.993 63.6621 181.636 64.5098 182.613 64.5098ZM190.297 64.6738C191.165 64.6738 191.883 64.1064 191.883 63.3135V62.7803L190.338 62.876C189.593 62.9307 189.169 63.2656 189.169 63.7852C189.169 64.332 189.62 64.6738 190.297 64.6738ZM189.641 66.1162C188.246 66.1162 187.187 65.2139 187.187 63.8945C187.187 62.5615 188.212 61.7891 190.037 61.6797L191.883 61.5703V61.085C191.883 60.4014 191.404 60.0049 190.652 60.0049C189.907 60.0049 189.436 60.374 189.34 60.9141H187.515C187.59 59.4922 188.8 58.5146 190.741 58.5146C192.621 58.5146 193.845 59.4854 193.845 60.9619V66H191.917V64.8789H191.876C191.466 65.6582 190.557 66.1162 189.641 66.1162ZM198.739 66.1572C196.374 66.1572 195.034 64.667 195.034 61.8027C195.034 57.6807 196.429 56.0879 199.102 56.0059L199.956 55.9854C200.879 55.9512 201.686 55.7871 201.884 55.6846V57.2295C201.774 57.332 201.084 57.5166 200.079 57.5439L199.272 57.5713C197.461 57.626 196.812 58.4805 196.572 60.3467H196.627C197.078 59.4717 197.905 58.9658 199.102 58.9658C201.077 58.9658 202.362 60.3125 202.362 62.4385C202.362 64.7422 200.975 66.1572 198.739 66.1572ZM198.705 64.585C199.717 64.585 200.318 63.833 200.318 62.4863C200.318 61.2012 199.717 60.4492 198.705 60.4492C197.687 60.4492 197.078 61.2012 197.078 62.4863C197.078 63.833 197.68 64.585 198.705 64.585ZM206.895 66.1572C204.68 66.1572 203.265 64.7354 203.265 62.3291C203.265 59.957 204.7 58.5146 206.895 58.5146C209.089 58.5146 210.524 59.9502 210.524 62.3291C210.524 64.7422 209.109 66.1572 206.895 66.1572ZM206.895 64.6328C207.872 64.6328 208.494 63.8057 208.494 62.3359C208.494 60.8799 207.865 60.0391 206.895 60.0391C205.924 60.0391 205.288 60.8799 205.288 62.3359C205.288 63.8057 205.91 64.6328 206.895 64.6328ZM217.415 58.6719V60.1758H215.234V66H213.245V60.1758H211.058V58.6719H217.415ZM222.269 62.0625L225.365 66H222.952L220.478 62.8555H220.423V66H218.434V58.6719H220.423V61.6182H220.478L222.911 58.6719H225.194L222.269 62.0625ZM228.113 66H226.158V58.6719H228.113V63.252H228.168L231.08 58.6719H233.035V66H231.08V61.3652H231.025L228.113 66ZM24.9766 94H23.0215V86.6719H24.9766V91.252H25.0312L27.9434 86.6719H29.8984V94H27.9434V89.3652H27.8887L24.9766 94ZM36.1396 94V90.999H33.3232V94H31.334V86.6719H33.3232V89.4883H36.1396V86.6719H38.1289V94H36.1396ZM44.4658 92.4893V88.1689H42.2715L42.1074 90.4863C42.0527 91.2656 41.9023 91.9424 41.5742 92.4346V92.4893H44.4658ZM40.7949 95.9004H38.9834V92.4893H39.5439C40.0771 92.1885 40.2822 91.3477 40.3506 90.3564L40.5898 86.6719H46.4551V92.4893H47.542V95.9004H45.7236V94H40.7949V95.9004ZM50.3926 94H48.4375V86.6719H50.3926V91.252H50.4473L53.3594 86.6719H55.3145V94H53.3594V89.3652H53.3047L50.3926 94ZM59.8877 87.9365H58.7051V89.6387H59.7852C60.5166 89.6387 60.9131 89.3311 60.9131 88.7773C60.9131 88.2441 60.5439 87.9365 59.8877 87.9365ZM59.8877 90.7939H58.7051V92.7354H59.9766C60.7559 92.7354 61.1865 92.3936 61.1865 91.7578C61.1865 91.1221 60.7354 90.7939 59.8877 90.7939ZM56.75 94V86.6719H60.4209C61.9453 86.6719 62.8613 87.3623 62.8613 88.5176C62.8613 89.3037 62.2871 89.9873 61.5352 90.1035V90.1582C62.5127 90.2744 63.1895 90.958 63.1895 91.8809C63.1895 93.166 62.1504 94 60.4893 94H56.75ZM66.3477 94H64.3926V86.6719H66.3477V91.252H66.4023L69.3145 86.6719H71.2695V94H69.3145V89.3652H69.2598L66.3477 94ZM77.6064 92.4893V88.1689H75.4121L75.248 90.4863C75.1934 91.2656 75.043 91.9424 74.7148 92.4346V92.4893H77.6064ZM73.9355 95.9004H72.124V92.4893H72.6846C73.2178 92.1885 73.4229 91.3477 73.4912 90.3564L73.7305 86.6719H79.5957V92.4893H80.6826V95.9004H78.8643V94H73.9355V95.9004ZM82.4463 96.7139C82.3779 96.7139 81.7559 96.707 81.6943 96.6934V95.1553C81.7559 95.1689 82.1182 95.1689 82.1934 95.1689C82.9248 95.1689 83.2871 94.9365 83.4238 94.3555C83.4238 94.3281 83.499 94.0342 83.4854 94.0068L80.9355 86.6719H83.1299L84.6885 92.4004H84.7227L86.2812 86.6719H88.3867L85.8643 94.1641C85.2354 96.0439 84.3193 96.7139 82.4463 96.7139ZM91.9688 92.6738C92.8369 92.6738 93.5547 92.1064 93.5547 91.3135V90.7803L92.0098 90.876C91.2646 90.9307 90.8408 91.2656 90.8408 91.7852C90.8408 92.332 91.292 92.6738 91.9688 92.6738ZM91.3125 94.1162C89.918 94.1162 88.8584 93.2139 88.8584 91.8945C88.8584 90.5615 89.8838 89.7891 91.709 89.6797L93.5547 89.5703V89.085C93.5547 88.4014 93.0762 88.0049 92.3242 88.0049C91.5791 88.0049 91.1074 88.374 91.0117 88.9141H89.1865C89.2617 87.4922 90.4717 86.5146 92.4131 86.5146C94.293 86.5146 95.5166 87.4854 95.5166 88.9619V94H93.5889V92.8789H93.5479C93.1377 93.6582 92.2285 94.1162 91.3125 94.1162ZM99.6045 90.4863C99.4746 92.6602 98.8799 94.0889 97.0684 94.0889C96.7607 94.0889 96.5352 94.0342 96.4326 93.9932V92.3115C96.5146 92.332 96.665 92.3594 96.8633 92.3594C97.5605 92.3594 97.7725 91.5117 97.834 90.3564L98.0391 86.6719H103.597V94H101.607V88.1758H99.748L99.6045 90.4863ZM108.129 90.2607H107.028V92.5098H108.129C108.854 92.5098 109.318 92.0518 109.318 91.3818C109.318 90.7119 108.847 90.2607 108.129 90.2607ZM105.039 94V86.6719H107.028V88.791H108.457C110.187 88.791 111.294 89.8027 111.294 91.3955C111.294 92.9883 110.187 94 108.457 94H105.039ZM117.214 94V90.999H114.397V94H112.408V86.6719H114.397V89.4883H117.214V86.6719H119.203V94H117.214ZM127.611 94V86.6719H129.601V94H127.611ZM123.729 90.2607H122.628V92.5098H123.729C124.453 92.5098 124.918 92.0518 124.918 91.3818C124.918 90.7119 124.446 90.2607 123.729 90.2607ZM120.639 94V86.6719H122.628V88.791H124.057C125.786 88.791 126.894 89.8027 126.894 91.3955C126.894 92.9883 125.786 94 124.057 94H120.639ZM134.044 91.457H134.003L132.629 94H130.53L132.827 90.3496L130.544 86.6719H132.793L134.112 89.1465H134.153L135.452 86.6719H137.626L135.336 90.2949L137.605 94H135.438L134.044 91.457ZM139.95 96.1602H138.453L138.966 92.3047H140.866L139.95 96.1602ZM145.337 96.7139C145.269 96.7139 144.646 96.707 144.585 96.6934V95.1553C144.646 95.1689 145.009 95.1689 145.084 95.1689C145.815 95.1689 146.178 94.9365 146.314 94.3555C146.314 94.3281 146.39 94.0342 146.376 94.0068L143.826 86.6719H146.021L147.579 92.4004H147.613L149.172 86.6719H151.277L148.755 94.1641C148.126 96.0439 147.21 96.7139 145.337 96.7139ZM156.835 92.4893V88.1689H154.641L154.477 90.4863C154.422 91.2656 154.271 91.9424 153.943 92.4346V92.4893H156.835ZM153.164 95.9004H151.353V92.4893H151.913C152.446 92.1885 152.651 91.3477 152.72 90.3564L152.959 86.6719H158.824V92.4893H159.911V95.9004H158.093V94H153.164V95.9004ZM164.129 94.1572C161.914 94.1572 160.499 92.7354 160.499 90.3291C160.499 87.957 161.935 86.5146 164.129 86.5146C166.323 86.5146 167.759 87.9502 167.759 90.3291C167.759 92.7422 166.344 94.1572 164.129 94.1572ZM164.129 92.6328C165.106 92.6328 165.729 91.8057 165.729 90.3359C165.729 88.8799 165.1 88.0391 164.129 88.0391C163.158 88.0391 162.522 88.8799 162.522 90.3359C162.522 91.8057 163.145 92.6328 164.129 92.6328ZM172.394 94.1572C170.028 94.1572 168.688 92.667 168.688 89.8027C168.688 85.6807 170.083 84.0879 172.756 84.0059L173.61 83.9854C174.533 83.9512 175.34 83.7871 175.538 83.6846V85.2295C175.429 85.332 174.738 85.5166 173.733 85.5439L172.927 85.5713C171.115 85.626 170.466 86.4805 170.227 88.3467H170.281C170.732 87.4717 171.56 86.9658 172.756 86.9658C174.731 86.9658 176.017 88.3125 176.017 90.4385C176.017 92.7422 174.629 94.1572 172.394 94.1572ZM172.359 92.585C173.371 92.585 173.973 91.833 173.973 90.4863C173.973 89.2012 173.371 88.4492 172.359 88.4492C171.341 88.4492 170.732 89.2012 170.732 90.4863C170.732 91.833 171.334 92.585 172.359 92.585ZM181.991 94V90.999H179.175V94H177.186V86.6719H179.175V89.4883H181.991V86.6719H183.98V94H181.991ZM192.389 94V86.6719H194.378V94H192.389ZM188.506 90.2607H187.405V92.5098H188.506C189.23 92.5098 189.695 92.0518 189.695 91.3818C189.695 90.7119 189.224 90.2607 188.506 90.2607ZM185.416 94V86.6719H187.405V88.791H188.834C190.563 88.791 191.671 89.8027 191.671 91.3955C191.671 92.9883 190.563 94 188.834 94H185.416ZM198.821 91.457H198.78L197.406 94H195.308L197.604 90.3496L195.321 86.6719H197.57L198.89 89.1465H198.931L200.229 86.6719H202.403L200.113 90.2949L202.383 94H200.216L198.821 91.457ZM208.057 94H206.102V86.6719H208.057V91.252H208.111L211.023 86.6719H212.979V94H211.023V89.3652H210.969L208.057 94ZM12.8496 122V116.176H10.1016V122H8.1123V114.672H14.8389V122H12.8496ZM19.6377 122.157C17.4229 122.157 16.0078 120.735 16.0078 118.329C16.0078 115.957 17.4434 114.515 19.6377 114.515C21.832 114.515 23.2676 115.95 23.2676 118.329C23.2676 120.742 21.8525 122.157 19.6377 122.157ZM19.6377 120.633C20.6152 120.633 21.2373 119.806 21.2373 118.336C21.2373 116.88 20.6084 116.039 19.6377 116.039C18.667 116.039 18.0312 116.88 18.0312 118.336C18.0312 119.806 18.6533 120.633 19.6377 120.633ZM29.2285 122V118.999H26.4121V122H24.4229V114.672H26.4121V117.488H29.2285V114.672H31.2178V122H29.2285ZM35.6953 118.233H36.8916V116.155H35.6953C34.9912 116.155 34.5469 116.572 34.5469 117.222C34.5469 117.81 34.998 118.233 35.6953 118.233ZM36.8916 122V119.635H36.0918L34.4648 122H32.25L34.1777 119.334C33.1797 119.02 32.5645 118.268 32.5645 117.215C32.5645 115.656 33.7197 114.672 35.4971 114.672H38.8398V122H36.8916ZM46.2227 114.672V116.176H44.042V122H42.0527V116.176H39.8652V114.672H46.2227ZM52.0469 122V118.999H49.2305V122H47.2412V114.672H49.2305V117.488H52.0469V114.672H54.0361V122H52.0469ZM62.4443 122V114.672H64.4336V122H62.4443ZM58.5615 118.261H57.4609V120.51H58.5615C59.2861 120.51 59.751 120.052 59.751 119.382C59.751 118.712 59.2793 118.261 58.5615 118.261ZM55.4717 122V114.672H57.4609V116.791H58.8896C60.6191 116.791 61.7266 117.803 61.7266 119.396C61.7266 120.988 60.6191 122 58.8896 122H55.4717ZM68.877 119.457H68.8359L67.4619 122H65.3633L67.6602 118.35L65.377 114.672H67.626L68.9453 117.146H68.9863L70.2852 114.672H72.459L70.1689 118.295L72.4385 122H70.2715L68.877 119.457ZM78.1123 122H76.1572V114.672H78.1123V119.252H78.167L81.0791 114.672H83.0342V122H81.0791V117.365H81.0244L78.1123 122ZM89.2754 122V118.999H86.459V122H84.4697V114.672H86.459V117.488H89.2754V114.672H91.2646V122H89.2754ZM98.6406 114.672V116.176H96.46V122H94.4707V116.176H92.2832V114.672H98.6406ZM102.811 115.991C101.936 115.991 101.307 116.654 101.238 117.57H104.349C104.308 116.634 103.699 115.991 102.811 115.991ZM104.376 119.758H106.208C105.989 121.193 104.677 122.157 102.865 122.157C100.609 122.157 99.2559 120.715 99.2559 118.37C99.2559 116.032 100.623 114.515 102.79 114.515C104.923 114.515 106.27 115.957 106.27 118.186V118.794H101.218V118.917C101.218 119.963 101.881 120.681 102.899 120.681C103.631 120.681 104.191 120.318 104.376 119.758ZM111.704 114.556C113.563 114.556 114.705 115.971 114.705 118.336C114.705 120.694 113.57 122.116 111.738 122.116C110.672 122.116 109.852 121.597 109.462 120.77H109.421V124.393H107.425V114.672H109.394V115.95H109.435C109.831 115.089 110.645 114.556 111.704 114.556ZM111.034 120.51C112.032 120.51 112.661 119.669 112.661 118.336C112.661 117.01 112.032 116.155 111.034 116.155C110.057 116.155 109.414 117.023 109.414 118.336C109.414 119.662 110.057 120.51 111.034 120.51ZM119.606 120.599V116.066C118.41 116.101 117.631 116.941 117.631 118.336C117.631 119.737 118.396 120.564 119.606 120.599ZM123.489 118.336C123.489 116.928 122.717 116.107 121.514 116.066V120.599C122.71 120.564 123.489 119.724 123.489 118.336ZM119.586 122.109C117.159 122.055 115.614 120.646 115.614 118.329C115.614 116.046 117.18 114.617 119.586 114.562V112.348H121.534V114.562C123.954 114.617 125.499 116.019 125.499 118.336C125.499 120.619 123.934 122.055 121.534 122.109V124.393H119.586V122.109ZM129.963 115.991C129.088 115.991 128.459 116.654 128.391 117.57H131.501C131.46 116.634 130.852 115.991 129.963 115.991ZM131.528 119.758H133.36C133.142 121.193 131.829 122.157 130.018 122.157C127.762 122.157 126.408 120.715 126.408 118.37C126.408 116.032 127.775 114.515 129.942 114.515C132.075 114.515 133.422 115.957 133.422 118.186V118.794H128.37V118.917C128.37 119.963 129.033 120.681 130.052 120.681C130.783 120.681 131.344 120.318 131.528 119.758ZM136.532 122H134.577V114.672H136.532V119.252H136.587L139.499 114.672H141.454V122H139.499V117.365H139.444L136.532 122ZM135.671 111.356H136.888C136.901 112.088 137.359 112.614 138.077 112.614C138.788 112.614 139.246 112.088 139.26 111.356H140.483C140.483 112.703 139.513 113.605 138.077 113.605C136.635 113.605 135.671 112.703 135.671 111.356ZM149.486 117.174H147.62C147.456 116.538 146.978 116.08 146.219 116.08C145.234 116.08 144.626 116.928 144.626 118.329C144.626 119.758 145.234 120.592 146.226 120.592C146.971 120.592 147.463 120.188 147.634 119.498H149.493C149.315 121.118 148.064 122.157 146.205 122.157C144.004 122.157 142.616 120.708 142.616 118.329C142.616 115.991 144.004 114.515 146.191 114.515C148.078 114.515 149.295 115.636 149.486 117.174ZM153.964 122.157C151.749 122.157 150.334 120.735 150.334 118.329C150.334 115.957 151.77 114.515 153.964 114.515C156.158 114.515 157.594 115.95 157.594 118.329C157.594 120.742 156.179 122.157 153.964 122.157ZM153.964 120.633C154.941 120.633 155.563 119.806 155.563 118.336C155.563 116.88 154.935 116.039 153.964 116.039C152.993 116.039 152.357 116.88 152.357 118.336C152.357 119.806 152.979 120.633 153.964 120.633ZM161.887 115.937H160.704V117.639H161.784C162.516 117.639 162.912 117.331 162.912 116.777C162.912 116.244 162.543 115.937 161.887 115.937ZM161.887 118.794H160.704V120.735H161.976C162.755 120.735 163.186 120.394 163.186 119.758C163.186 119.122 162.734 118.794 161.887 118.794ZM158.749 122V114.672H162.42C163.944 114.672 164.86 115.362 164.86 116.518C164.86 117.304 164.286 117.987 163.534 118.104V118.158C164.512 118.274 165.188 118.958 165.188 119.881C165.188 121.166 164.149 122 162.488 122H158.749ZM167.725 124.16H166.228L166.74 120.305H168.641L167.725 124.16ZM176.01 118.062L179.106 122H176.693L174.219 118.855H174.164V122H172.175V114.672H174.164V117.618H174.219L176.652 114.672H178.936L176.01 118.062ZM183.017 122.157C180.802 122.157 179.387 120.735 179.387 118.329C179.387 115.957 180.822 114.515 183.017 114.515C185.211 114.515 186.646 115.95 186.646 118.329C186.646 120.742 185.231 122.157 183.017 122.157ZM183.017 120.633C183.994 120.633 184.616 119.806 184.616 118.336C184.616 116.88 183.987 116.039 183.017 116.039C182.046 116.039 181.41 116.88 181.41 118.336C181.41 119.806 182.032 120.633 183.017 120.633ZM193.537 114.672V116.176H191.356V122H189.367V116.176H187.18V114.672H193.537ZM197.782 122.157C195.567 122.157 194.152 120.735 194.152 118.329C194.152 115.957 195.588 114.515 197.782 114.515C199.977 114.515 201.412 115.95 201.412 118.329C201.412 120.742 199.997 122.157 197.782 122.157ZM197.782 120.633C198.76 120.633 199.382 119.806 199.382 118.336C199.382 116.88 198.753 116.039 197.782 116.039C196.812 116.039 196.176 116.88 196.176 118.336C196.176 119.806 196.798 120.633 197.782 120.633ZM206.847 114.556C208.706 114.556 209.848 115.971 209.848 118.336C209.848 120.694 208.713 122.116 206.881 122.116C205.814 122.116 204.994 121.597 204.604 120.77H204.563V124.393H202.567V114.672H204.536V115.95H204.577C204.974 115.089 205.787 114.556 206.847 114.556ZM206.177 120.51C207.175 120.51 207.804 119.669 207.804 118.336C207.804 117.01 207.175 116.155 206.177 116.155C205.199 116.155 204.557 117.023 204.557 118.336C204.557 119.662 205.199 120.51 206.177 120.51ZM218.003 122V114.672H219.992V122H218.003ZM214.12 118.261H213.02V120.51H214.12C214.845 120.51 215.31 120.052 215.31 119.382C215.31 118.712 214.838 118.261 214.12 118.261ZM211.03 122V114.672H213.02V116.791H214.448C216.178 116.791 217.285 117.803 217.285 119.396C217.285 120.988 216.178 122 214.448 122H211.03ZM224.709 115.991C223.834 115.991 223.205 116.654 223.137 117.57H226.247C226.206 116.634 225.598 115.991 224.709 115.991ZM226.274 119.758H228.106C227.888 121.193 226.575 122.157 224.764 122.157C222.508 122.157 221.154 120.715 221.154 118.37C221.154 116.032 222.521 114.515 224.688 114.515C226.821 114.515 228.168 115.957 228.168 118.186V118.794H223.116V118.917C223.116 119.963 223.779 120.681 224.798 120.681C225.529 120.681 226.09 120.318 226.274 119.758ZM5.0293 150V144.176H2.28125V150H0.291992V142.672H7.01855V150H5.0293ZM11.8174 150.157C9.60254 150.157 8.1875 148.735 8.1875 146.329C8.1875 143.957 9.62305 142.515 11.8174 142.515C14.0117 142.515 15.4473 143.95 15.4473 146.329C15.4473 148.742 14.0322 150.157 11.8174 150.157ZM11.8174 148.633C12.7949 148.633 13.417 147.806 13.417 146.336C13.417 144.88 12.7881 144.039 11.8174 144.039C10.8467 144.039 10.2109 144.88 10.2109 146.336C10.2109 147.806 10.833 148.633 11.8174 148.633ZM18.4756 150H16.6025V142.672H19.1865L21.1006 147.457H21.1484L23.0625 142.672H25.6191V150H23.7461V145.099H23.6982L21.7979 149.59H20.417L18.5234 145.099H18.4756V150ZM30.4248 150.157C28.21 150.157 26.7949 148.735 26.7949 146.329C26.7949 143.957 28.2305 142.515 30.4248 142.515C32.6191 142.515 34.0547 143.95 34.0547 146.329C34.0547 148.742 32.6396 150.157 30.4248 150.157ZM30.4248 148.633C31.4023 148.633 32.0244 147.806 32.0244 146.336C32.0244 144.88 31.3955 144.039 30.4248 144.039C29.4541 144.039 28.8184 144.88 28.8184 146.336C28.8184 147.806 29.4404 148.633 30.4248 148.633ZM40.3164 144.176H37.1992V150H35.21V142.672H40.3164V144.176ZM42.4082 152.714C42.3398 152.714 41.7178 152.707 41.6562 152.693V151.155C41.7178 151.169 42.0801 151.169 42.1553 151.169C42.8867 151.169 43.249 150.937 43.3857 150.355C43.3857 150.328 43.4609 150.034 43.4473 150.007L40.8975 142.672H43.0918L44.6504 148.4H44.6846L46.2432 142.672H48.3486L45.8262 150.164C45.1973 152.044 44.2812 152.714 42.4082 152.714ZM55.1504 142.672V144.176H52.9697V150H50.9805V144.176H48.793V142.672H55.1504ZM60.8994 150H58.9443V142.672H60.8994V147.252H60.9541L63.8662 142.672H65.8213V150H63.8662V145.365H63.8115L60.8994 150ZM72.3633 144.176H69.2461V150H67.2568V142.672H72.3633V144.176ZM77.7979 142.556C79.6572 142.556 80.7988 143.971 80.7988 146.336C80.7988 148.694 79.6641 150.116 77.832 150.116C76.7656 150.116 75.9453 149.597 75.5557 148.77H75.5146V152.393H73.5186V142.672H75.4873V143.95H75.5283C75.9248 143.089 76.7383 142.556 77.7979 142.556ZM77.1279 148.51C78.126 148.51 78.7549 147.669 78.7549 146.336C78.7549 145.01 78.126 144.155 77.1279 144.155C76.1504 144.155 75.5078 145.023 75.5078 146.336C75.5078 147.662 76.1504 148.51 77.1279 148.51ZM85.3447 150.157C83.1299 150.157 81.7148 148.735 81.7148 146.329C81.7148 143.957 83.1504 142.515 85.3447 142.515C87.5391 142.515 88.9746 143.95 88.9746 146.329C88.9746 148.742 87.5596 150.157 85.3447 150.157ZM85.3447 148.633C86.3223 148.633 86.9443 147.806 86.9443 146.336C86.9443 144.88 86.3154 144.039 85.3447 144.039C84.374 144.039 83.7383 144.88 83.7383 146.336C83.7383 147.806 84.3604 148.633 85.3447 148.633ZM93.9648 146.062L97.0615 150H94.6484L92.1738 146.855H92.1191V150H90.1299V142.672H92.1191V145.618H92.1738L94.6074 142.672H96.8906L93.9648 146.062ZM100.575 148.674C101.443 148.674 102.161 148.106 102.161 147.313V146.78L100.616 146.876C99.8711 146.931 99.4473 147.266 99.4473 147.785C99.4473 148.332 99.8984 148.674 100.575 148.674ZM99.9189 150.116C98.5244 150.116 97.4648 149.214 97.4648 147.895C97.4648 146.562 98.4902 145.789 100.315 145.68L102.161 145.57V145.085C102.161 144.401 101.683 144.005 100.931 144.005C100.186 144.005 99.7139 144.374 99.6182 144.914H97.793C97.8682 143.492 99.0781 142.515 101.02 142.515C102.899 142.515 104.123 143.485 104.123 144.962V150H102.195V148.879H102.154C101.744 149.658 100.835 150.116 99.9189 150.116ZM107.411 150H105.538V142.672H108.122L110.036 147.457H110.084L111.998 142.672H114.555V150H112.682V145.099H112.634L110.733 149.59H109.353L107.459 145.099H107.411V150ZM121.91 143.937H120.728V145.639H121.808C122.539 145.639 122.936 145.331 122.936 144.777C122.936 144.244 122.566 143.937 121.91 143.937ZM121.91 146.794H120.728V148.735H121.999C122.778 148.735 123.209 148.394 123.209 147.758C123.209 147.122 122.758 146.794 121.91 146.794ZM118.772 150V142.672H122.443C123.968 142.672 124.884 143.362 124.884 144.518C124.884 145.304 124.31 145.987 123.558 146.104V146.158C124.535 146.274 125.212 146.958 125.212 147.881C125.212 149.166 124.173 150 122.512 150H118.772ZM131.146 150H129.19V142.672H131.146V147.252H131.2L134.112 142.672H136.067V150H134.112V145.365H134.058L131.146 150ZM144.1 145.174H142.233C142.069 144.538 141.591 144.08 140.832 144.08C139.848 144.08 139.239 144.928 139.239 146.329C139.239 147.758 139.848 148.592 140.839 148.592C141.584 148.592 142.076 148.188 142.247 147.498H144.106C143.929 149.118 142.678 150.157 140.818 150.157C138.617 150.157 137.229 148.708 137.229 146.329C137.229 143.991 138.617 142.515 140.805 142.515C142.691 142.515 143.908 143.636 144.1 145.174ZM151.811 145.174H149.944C149.78 144.538 149.302 144.08 148.543 144.08C147.559 144.08 146.95 144.928 146.95 146.329C146.95 147.758 147.559 148.592 148.55 148.592C149.295 148.592 149.787 148.188 149.958 147.498H151.817C151.64 149.118 150.389 150.157 148.529 150.157C146.328 150.157 144.94 148.708 144.94 146.329C144.94 143.991 146.328 142.515 148.516 142.515C150.402 142.515 151.619 143.636 151.811 145.174ZM155.557 146.486C155.427 148.66 154.832 150.089 153.021 150.089C152.713 150.089 152.487 150.034 152.385 149.993V148.312C152.467 148.332 152.617 148.359 152.815 148.359C153.513 148.359 153.725 147.512 153.786 146.356L153.991 142.672H159.549V150H157.56V144.176H155.7L155.557 146.486ZM164.279 143.991C163.404 143.991 162.775 144.654 162.707 145.57H165.817C165.776 144.634 165.168 143.991 164.279 143.991ZM165.845 147.758H167.677C167.458 149.193 166.146 150.157 164.334 150.157C162.078 150.157 160.725 148.715 160.725 146.37C160.725 144.032 162.092 142.515 164.259 142.515C166.392 142.515 167.738 143.957 167.738 146.186V146.794H162.687V146.917C162.687 147.963 163.35 148.681 164.368 148.681C165.1 148.681 165.66 148.318 165.845 147.758ZM173.686 148.489V144.169H171.491L171.327 146.486C171.272 147.266 171.122 147.942 170.794 148.435V148.489H173.686ZM170.015 151.9H168.203V148.489H168.764C169.297 148.188 169.502 147.348 169.57 146.356L169.81 142.672H175.675V148.489H176.762V151.9H174.943V150H170.015V151.9ZM180.979 150.157C178.765 150.157 177.35 148.735 177.35 146.329C177.35 143.957 178.785 142.515 180.979 142.515C183.174 142.515 184.609 143.95 184.609 146.329C184.609 148.742 183.194 150.157 180.979 150.157ZM180.979 148.633C181.957 148.633 182.579 147.806 182.579 146.336C182.579 144.88 181.95 144.039 180.979 144.039C180.009 144.039 179.373 144.88 179.373 146.336C179.373 147.806 179.995 148.633 180.979 148.633ZM188.902 143.937H187.72V145.639H188.8C189.531 145.639 189.928 145.331 189.928 144.777C189.928 144.244 189.559 143.937 188.902 143.937ZM188.902 146.794H187.72V148.735H188.991C189.771 148.735 190.201 148.394 190.201 147.758C190.201 147.122 189.75 146.794 188.902 146.794ZM185.765 150V142.672H189.436C190.96 142.672 191.876 143.362 191.876 144.518C191.876 145.304 191.302 145.987 190.55 146.104V146.158C191.527 146.274 192.204 146.958 192.204 147.881C192.204 149.166 191.165 150 189.504 150H185.765ZM196.237 148.674C197.105 148.674 197.823 148.106 197.823 147.313V146.78L196.278 146.876C195.533 146.931 195.109 147.266 195.109 147.785C195.109 148.332 195.561 148.674 196.237 148.674ZM195.581 150.116C194.187 150.116 193.127 149.214 193.127 147.895C193.127 146.562 194.152 145.789 195.978 145.68L197.823 145.57V145.085C197.823 144.401 197.345 144.005 196.593 144.005C195.848 144.005 195.376 144.374 195.28 144.914H193.455C193.53 143.492 194.74 142.515 196.682 142.515C198.562 142.515 199.785 143.485 199.785 144.962V150H197.857V148.879H197.816C197.406 149.658 196.497 150.116 195.581 150.116ZM206.006 150V146.999H203.189V150H201.2V142.672H203.189V145.488H206.006V142.672H207.995V150H206.006ZM211.386 150H209.431V142.672H211.386V147.252H211.44L214.353 142.672H216.308V150H214.353V145.365H214.298L211.386 150ZM219.698 150H217.743V142.672H219.698V147.252H219.753L222.665 142.672H224.62V150H222.665V145.365H222.61L219.698 150ZM230.786 150H228.831V142.672H230.786V147.252H230.841L233.753 142.672H235.708V150H233.753V145.365H233.698L230.786 150ZM87.7988 178.157C85.584 178.157 84.1689 176.735 84.1689 174.329C84.1689 171.957 85.6045 170.515 87.7988 170.515C89.9932 170.515 91.4287 171.95 91.4287 174.329C91.4287 176.742 90.0137 178.157 87.7988 178.157ZM87.7988 176.633C88.7764 176.633 89.3984 175.806 89.3984 174.336C89.3984 172.88 88.7695 172.039 87.7988 172.039C86.8281 172.039 86.1924 172.88 86.1924 174.336C86.1924 175.806 86.8145 176.633 87.7988 176.633ZM96.0635 178.157C93.6982 178.157 92.3584 176.667 92.3584 173.803C92.3584 169.681 93.7529 168.088 96.4258 168.006L97.2803 167.985C98.2031 167.951 99.0098 167.787 99.208 167.685V169.229C99.0986 169.332 98.4082 169.517 97.4033 169.544L96.5967 169.571C94.7852 169.626 94.1357 170.48 93.8965 172.347H93.9512C94.4023 171.472 95.2295 170.966 96.4258 170.966C98.4014 170.966 99.6865 172.312 99.6865 174.438C99.6865 176.742 98.2988 178.157 96.0635 178.157ZM96.0293 176.585C97.041 176.585 97.6426 175.833 97.6426 174.486C97.6426 173.201 97.041 172.449 96.0293 172.449C95.0107 172.449 94.4023 173.201 94.4023 174.486C94.4023 175.833 95.0039 176.585 96.0293 176.585ZM101.614 180.714C101.546 180.714 100.924 180.707 100.862 180.693V179.155C100.924 179.169 101.286 179.169 101.361 179.169C102.093 179.169 102.455 178.937 102.592 178.355C102.592 178.328 102.667 178.034 102.653 178.007L100.104 170.672H102.298L103.856 176.4H103.891L105.449 170.672H107.555L105.032 178.164C104.403 180.044 103.487 180.714 101.614 180.714ZM114.91 178H112.921V174.951H112.846C112.442 175.389 111.807 175.683 110.966 175.683C109.291 175.683 108.279 174.637 108.279 172.976V170.672H110.269V172.688C110.269 173.529 110.74 174.028 111.547 174.028C112.217 174.028 112.675 173.769 112.921 173.447V170.672H114.91V178ZM119.634 171.991C118.759 171.991 118.13 172.654 118.062 173.57H121.172C121.131 172.634 120.522 171.991 119.634 171.991ZM121.199 175.758H123.031C122.812 177.193 121.5 178.157 119.688 178.157C117.433 178.157 116.079 176.715 116.079 174.37C116.079 172.032 117.446 170.515 119.613 170.515C121.746 170.515 123.093 171.957 123.093 174.186V174.794H118.041V174.917C118.041 175.963 118.704 176.681 119.723 176.681C120.454 176.681 121.015 176.318 121.199 175.758ZM129.054 178V174.999H126.237V178H124.248V170.672H126.237V173.488H129.054V170.672H131.043V178H129.054ZM134.434 178H132.479V170.672H134.434V175.252H134.488L137.4 170.672H139.355V178H137.4V173.365H137.346L134.434 178ZM142.746 178H140.791V170.672H142.746V175.252H142.801L145.713 170.672H147.668V178H145.713V173.365H145.658L142.746 178ZM150.334 178.082C149.719 178.082 149.233 177.59 149.233 176.981C149.233 176.366 149.719 175.881 150.334 175.881C150.942 175.881 151.435 176.366 151.435 176.981C151.435 177.59 150.942 178.082 150.334 178.082Z" fill="url(#paint0_linear_16_356)"/>
<defs>
<linearGradient id="paint0_linear_16_356" x1="118" y1="-58" x2="118" y2="94" gradientUnits="userSpaceOnUse">
<stop stop-color="white" stop-opacity="0"/>
<stop offset="1" stop-color="white"/>
</linearGradient>
</defs>
</svg>
