<svg width="197" height="19" viewBox="0 0 197 19" fill="none" xmlns="http://www.w3.org/2000/svg">
<path d="M5.83594 9.0918C5.72852 10.6641 5.52344 11.748 4.89844 12.4805V12.5586H10.6504V3.33008H6.20703L5.83594 9.0918ZM3.42383 15V17.7832H0.748047V12.5586H1.73438C2.7207 11.8848 3.00391 10.7812 3.12109 8.86719L3.60938 0.908203H13.5996V12.5586H15.3574V17.7832H12.6914V15H3.42383ZM21.6465 15.2246C18.4824 15.2246 16.4609 13.1934 16.4609 9.75586C16.4609 6.36719 18.5117 4.30664 21.6465 4.30664C24.7812 4.30664 26.832 6.35742 26.832 9.75586C26.832 13.2031 24.8105 15.2246 21.6465 15.2246ZM21.6465 13.0469C23.043 13.0469 23.9316 11.8652 23.9316 9.76562C23.9316 7.68555 23.0332 6.48438 21.6465 6.48438C20.2598 6.48438 19.3516 7.68555 19.3516 9.76562C19.3516 11.8652 20.2402 13.0469 21.6465 13.0469ZM33.4531 15.2246C30.0742 15.2246 28.1602 13.0957 28.1602 9.00391C28.1602 3.11523 30.1523 0.839844 33.9707 0.722656L35.1914 0.693359C36.5098 0.644531 37.6621 0.410156 37.9453 0.263672V2.4707C37.7891 2.61719 36.8027 2.88086 35.3672 2.91992L34.2148 2.95898C31.627 3.03711 30.6992 4.25781 30.3574 6.92383H30.4355C31.0801 5.67383 32.2617 4.95117 33.9707 4.95117C36.793 4.95117 38.6289 6.875 38.6289 9.91211C38.6289 13.2031 36.6465 15.2246 33.4531 15.2246ZM33.4043 12.9785C34.8496 12.9785 35.709 11.9043 35.709 9.98047C35.709 8.14453 34.8496 7.07031 33.4043 7.07031C31.9492 7.07031 31.0801 8.14453 31.0801 9.98047C31.0801 11.9043 31.9395 12.9785 33.4043 12.9785ZM46.4121 4.36523C49.0684 4.36523 50.6992 6.38672 50.6992 9.76562C50.6992 13.1348 49.0781 15.166 46.4609 15.166C44.9375 15.166 43.7656 14.4238 43.209 13.2422H43.1504V18.418H40.2988V4.53125H43.1113V6.35742H43.1699C43.7363 5.12695 44.8984 4.36523 46.4121 4.36523ZM45.4551 12.8711C46.8809 12.8711 47.7793 11.6699 47.7793 9.76562C47.7793 7.87109 46.8809 6.65039 45.4551 6.65039C44.0586 6.65039 43.1406 7.89062 43.1406 9.76562C43.1406 11.6602 44.0586 12.8711 45.4551 12.8711ZM57.1934 15.2246C54.0293 15.2246 52.0078 13.1934 52.0078 9.75586C52.0078 6.36719 54.0586 4.30664 57.1934 4.30664C60.3281 4.30664 62.3789 6.35742 62.3789 9.75586C62.3789 13.2031 60.3574 15.2246 57.1934 15.2246ZM57.1934 13.0469C58.5898 13.0469 59.4785 11.8652 59.4785 9.76562C59.4785 7.68555 58.5801 6.48438 57.1934 6.48438C55.8066 6.48438 54.8984 7.68555 54.8984 9.76562C54.8984 11.8652 55.7871 13.0469 57.1934 13.0469ZM74.7617 15V6.67969H70.8359V15H67.9941V4.53125H77.6035V15H74.7617ZM84.459 15.2246C81.2949 15.2246 79.2734 13.1934 79.2734 9.75586C79.2734 6.36719 81.3242 4.30664 84.459 4.30664C87.5938 4.30664 89.6445 6.35742 89.6445 9.75586C89.6445 13.2031 87.623 15.2246 84.459 15.2246ZM84.459 13.0469C85.8555 13.0469 86.7441 11.8652 86.7441 9.76562C86.7441 7.68555 85.8457 6.48438 84.459 6.48438C83.0723 6.48438 82.1641 7.68555 82.1641 9.76562C82.1641 11.8652 83.0527 13.0469 84.459 13.0469ZM101.969 9.4043L105.982 15H102.594L99.4004 10.5078H99.3223V15H96.5098V10.5078H96.4414L93.2383 15H89.8887L93.873 9.45312L90.0254 4.53125H93.2969L96.4414 8.74023H96.5098V4.53125H99.3223V8.74023H99.4004L102.535 4.53125H105.777L101.969 9.4043ZM110.904 13.1055C112.145 13.1055 113.17 12.2949 113.17 11.1621V10.4004L110.963 10.5371C109.898 10.6152 109.293 11.0938 109.293 11.8359C109.293 12.6172 109.938 13.1055 110.904 13.1055ZM109.967 15.166C107.975 15.166 106.461 13.877 106.461 11.9922C106.461 10.0879 107.926 8.98438 110.533 8.82812L113.17 8.67188V7.97852C113.17 7.00195 112.486 6.43555 111.412 6.43555C110.348 6.43555 109.674 6.96289 109.537 7.73438H106.93C107.037 5.70312 108.766 4.30664 111.539 4.30664C114.225 4.30664 115.973 5.69336 115.973 7.80273V15H113.219V13.3984H113.16C112.574 14.5117 111.275 15.166 109.967 15.166ZM121.812 9.98047C121.627 13.0859 120.777 15.127 118.189 15.127C117.75 15.127 117.428 15.0488 117.281 14.9902V12.5879C117.398 12.6172 117.613 12.6562 117.896 12.6562C118.893 12.6562 119.195 11.4453 119.283 9.79492L119.576 4.53125H127.516V15H124.674V6.67969H122.018L121.812 9.98047ZM134.381 15.2246C131.217 15.2246 129.195 13.1934 129.195 9.75586C129.195 6.36719 131.246 4.30664 134.381 4.30664C137.516 4.30664 139.566 6.35742 139.566 9.75586C139.566 13.2031 137.545 15.2246 134.381 15.2246ZM134.381 13.0469C135.777 13.0469 136.666 11.8652 136.666 9.76562C136.666 7.68555 135.768 6.48438 134.381 6.48438C132.994 6.48438 132.086 7.68555 132.086 9.76562C132.086 11.8652 132.975 13.0469 134.381 13.0469ZM145.699 6.33789H144.01V8.76953H145.553C146.598 8.76953 147.164 8.33008 147.164 7.53906C147.164 6.77734 146.637 6.33789 145.699 6.33789ZM145.699 10.4199H144.01V13.1934H145.826C146.939 13.1934 147.555 12.7051 147.555 11.7969C147.555 10.8887 146.91 10.4199 145.699 10.4199ZM141.217 15V4.53125H146.461C148.639 4.53125 149.947 5.51758 149.947 7.16797C149.947 8.29102 149.127 9.26758 148.053 9.43359V9.51172C149.449 9.67773 150.416 10.6543 150.416 11.9727C150.416 13.8086 148.932 15 146.559 15H141.217ZM156.178 13.1055C157.418 13.1055 158.443 12.2949 158.443 11.1621V10.4004L156.236 10.5371C155.172 10.6152 154.566 11.0938 154.566 11.8359C154.566 12.6172 155.211 13.1055 156.178 13.1055ZM155.24 15.166C153.248 15.166 151.734 13.877 151.734 11.9922C151.734 10.0879 153.199 8.98438 155.807 8.82812L158.443 8.67188V7.97852C158.443 7.00195 157.76 6.43555 156.686 6.43555C155.621 6.43555 154.947 6.96289 154.811 7.73438H152.203C152.311 5.70312 154.039 4.30664 156.812 4.30664C159.498 4.30664 161.246 5.69336 161.246 7.80273V15H158.492V13.3984H158.434C157.848 14.5117 156.549 15.166 155.24 15.166ZM171.656 4.53125V6.67969H168.541V15H165.699V6.67969H162.574V4.53125H171.656ZM177.525 9.6582H175.953V12.8711H177.525C178.561 12.8711 179.225 12.2168 179.225 11.2598C179.225 10.3027 178.551 9.6582 177.525 9.6582ZM173.111 15V4.53125H175.953V7.55859H177.994C180.465 7.55859 182.047 9.00391 182.047 11.2793C182.047 13.5547 180.465 15 177.994 15H173.111ZM192.086 6.33789H190.396V8.76953H191.939C192.984 8.76953 193.551 8.33008 193.551 7.53906C193.551 6.77734 193.023 6.33789 192.086 6.33789ZM192.086 10.4199H190.396V13.1934H192.213C193.326 13.1934 193.941 12.7051 193.941 11.7969C193.941 10.8887 193.297 10.4199 192.086 10.4199ZM187.604 15V4.53125H192.848C195.025 4.53125 196.334 5.51758 196.334 7.16797C196.334 8.29102 195.514 9.26758 194.439 9.43359V9.51172C195.836 9.67773 196.803 10.6543 196.803 11.9727C196.803 13.8086 195.318 15 192.945 15H187.604Z" fill="url(#paint0_linear_16_352)"/>
<defs>
<linearGradient id="paint0_linear_16_352" x1="99" y1="-7" x2="99" y2="23" gradientUnits="userSpaceOnUse">
<stop stop-color="white"/>
<stop offset="1" stop-color="white" stop-opacity="0"/>
</linearGradient>
</defs>
</svg>
