<svg width="110" height="21" viewBox="0 0 110 21" fill="none" xmlns="http://www.w3.org/2000/svg">
<path d="M110 20H0V22H110V20Z" fill="#FFBABA" fill-opacity="0.3" mask="url(#path-1-inside-1_10_693)"/>
<path opacity="0.3" d="M3.32031 11.7734L7.31934 5.04688H9.37012V15H7.31934V8.27344L3.32031 15H1.26953V5.04688H3.32031V11.7734ZM14.0801 13.5986C14.3216 13.5986 14.5358 13.5531 14.7227 13.4619C14.9095 13.3662 15.0553 13.234 15.1602 13.0654C15.2695 12.8923 15.3265 12.6895 15.3311 12.457H17.1836C17.179 12.9766 17.04 13.4391 16.7666 13.8447C16.4932 14.2458 16.1263 14.5625 15.666 14.7949C15.2057 15.0228 14.6908 15.1367 14.1211 15.1367C13.5469 15.1367 13.0456 15.041 12.6172 14.8496C12.1934 14.6582 11.8402 14.3939 11.5576 14.0566C11.2751 13.7148 11.0632 13.3184 10.9219 12.8672C10.7806 12.4115 10.71 11.9238 10.71 11.4043V11.2061C10.71 10.682 10.7806 10.1943 10.9219 9.74316C11.0632 9.28743 11.2751 8.89095 11.5576 8.55371C11.8402 8.21191 12.1934 7.94531 12.6172 7.75391C13.041 7.5625 13.5378 7.4668 14.1074 7.4668C14.7135 7.4668 15.2445 7.58301 15.7002 7.81543C16.1605 8.04785 16.5205 8.38053 16.7803 8.81348C17.0446 9.24186 17.179 9.75 17.1836 10.3379H15.3311C15.3265 10.0918 15.2741 9.86849 15.1738 9.66797C15.0781 9.46745 14.9368 9.30794 14.75 9.18945C14.5677 9.06641 14.3421 9.00488 14.0732 9.00488C13.7861 9.00488 13.5514 9.06641 13.3691 9.18945C13.1868 9.30794 13.0456 9.47201 12.9453 9.68164C12.8451 9.88672 12.7744 10.1214 12.7334 10.3857C12.6969 10.6455 12.6787 10.9189 12.6787 11.2061V11.4043C12.6787 11.6914 12.6969 11.9671 12.7334 12.2314C12.7699 12.4958 12.8382 12.7305 12.9385 12.9355C13.0433 13.1406 13.1868 13.3024 13.3691 13.4209C13.5514 13.5394 13.7884 13.5986 14.0801 13.5986ZM22.0918 7.60352V15H20.1162V7.60352H22.0918ZM24.4707 7.60352V9.12793H17.7715V7.60352H24.4707ZM24.9287 11.377V11.2334C24.9287 10.6911 25.0062 10.1921 25.1611 9.73633C25.3161 9.27604 25.5417 8.87728 25.8379 8.54004C26.1341 8.2028 26.4987 7.94076 26.9316 7.75391C27.3646 7.5625 27.8613 7.4668 28.4219 7.4668C28.9824 7.4668 29.4814 7.5625 29.9189 7.75391C30.3564 7.94076 30.7233 8.2028 31.0195 8.54004C31.3203 8.87728 31.5482 9.27604 31.7031 9.73633C31.8581 10.1921 31.9355 10.6911 31.9355 11.2334V11.377C31.9355 11.9147 31.8581 12.4137 31.7031 12.874C31.5482 13.3298 31.3203 13.7285 31.0195 14.0703C30.7233 14.4076 30.3587 14.6696 29.9258 14.8564C29.4928 15.0433 28.9961 15.1367 28.4355 15.1367C27.875 15.1367 27.376 15.0433 26.9385 14.8564C26.5055 14.6696 26.1387 14.4076 25.8379 14.0703C25.5417 13.7285 25.3161 13.3298 25.1611 12.874C25.0062 12.4137 24.9287 11.9147 24.9287 11.377ZM26.8975 11.2334V11.377C26.8975 11.6868 26.9248 11.9762 26.9795 12.2451C27.0342 12.514 27.1208 12.751 27.2393 12.9561C27.3623 13.1566 27.5218 13.3138 27.7178 13.4277C27.9137 13.5417 28.153 13.5986 28.4355 13.5986C28.709 13.5986 28.9437 13.5417 29.1396 13.4277C29.3356 13.3138 29.4928 13.1566 29.6113 12.9561C29.7298 12.751 29.8164 12.514 29.8711 12.2451C29.9303 11.9762 29.96 11.6868 29.96 11.377V11.2334C29.96 10.9326 29.9303 10.6501 29.8711 10.3857C29.8164 10.1169 29.7275 9.87988 29.6045 9.6748C29.486 9.46517 29.3288 9.30111 29.1328 9.18262C28.9368 9.06413 28.6999 9.00488 28.4219 9.00488C28.1439 9.00488 27.9069 9.06413 27.7109 9.18262C27.5195 9.30111 27.3623 9.46517 27.2393 9.6748C27.1208 9.87988 27.0342 10.1169 26.9795 10.3857C26.9248 10.6501 26.8975 10.9326 26.8975 11.2334ZM35.1143 9.02539V17.8438H33.1455V7.60352H34.9707L35.1143 9.02539ZM39.7969 11.2197V11.3633C39.7969 11.901 39.7331 12.4001 39.6055 12.8604C39.4824 13.3206 39.3001 13.7217 39.0586 14.0635C38.8171 14.4007 38.5163 14.665 38.1562 14.8564C37.8008 15.0433 37.3906 15.1367 36.9258 15.1367C36.4746 15.1367 36.0827 15.0456 35.75 14.8633C35.4173 14.681 35.137 14.4258 34.9092 14.0977C34.6859 13.765 34.5059 13.3799 34.3691 12.9424C34.2324 12.5049 34.1276 12.0355 34.0547 11.5342V11.1582C34.1276 10.6204 34.2324 10.1283 34.3691 9.68164C34.5059 9.23047 34.6859 8.84082 34.9092 8.5127C35.137 8.18001 35.415 7.92253 35.7432 7.74023C36.0758 7.55794 36.4655 7.4668 36.9121 7.4668C37.3815 7.4668 37.7939 7.55566 38.1494 7.7334C38.5094 7.91113 38.8102 8.16634 39.0518 8.49902C39.2979 8.83171 39.4824 9.22819 39.6055 9.68848C39.7331 10.1488 39.7969 10.6592 39.7969 11.2197ZM37.8213 11.3633V11.2197C37.8213 10.9053 37.7939 10.6159 37.7393 10.3516C37.6891 10.0827 37.6071 9.84798 37.4932 9.64746C37.3838 9.44694 37.238 9.29199 37.0557 9.18262C36.8779 9.06868 36.6615 9.01172 36.4062 9.01172C36.1374 9.01172 35.9072 9.05501 35.7158 9.1416C35.529 9.22819 35.3763 9.35352 35.2578 9.51758C35.1393 9.68164 35.0505 9.8776 34.9912 10.1055C34.932 10.3333 34.8955 10.5908 34.8818 10.8779V11.8281C34.9046 12.1654 34.9684 12.4684 35.0732 12.7373C35.1781 13.0016 35.3398 13.2113 35.5586 13.3662C35.7773 13.5212 36.0645 13.5986 36.4199 13.5986C36.6797 13.5986 36.8984 13.5417 37.0762 13.4277C37.2539 13.3092 37.3975 13.1475 37.5068 12.9424C37.6208 12.7373 37.7005 12.5003 37.7461 12.2314C37.7962 11.9626 37.8213 11.6732 37.8213 11.3633ZM42.9824 12.252L45.4639 7.60352H47.4326V15H45.4639V10.3447L42.9824 15H41.0137V7.60352H42.9824V12.252ZM50.543 11.3086H52.5391L50.4814 15H48.4922L50.543 11.3086ZM51.8691 7.60352H55.1162V15H53.1475V9.12793H51.8691C51.6003 9.12793 51.377 9.17806 51.1992 9.27832C51.0215 9.37402 50.8893 9.49935 50.8027 9.6543C50.7207 9.80469 50.6797 9.95964 50.6797 10.1191C50.6797 10.2741 50.7207 10.4245 50.8027 10.5703C50.8848 10.7161 51.0124 10.8369 51.1855 10.9326C51.3587 11.0283 51.5752 11.0762 51.835 11.0762H53.8789V12.416H51.835C51.3473 12.416 50.9098 12.3568 50.5225 12.2383C50.1396 12.1198 49.8115 11.9557 49.5381 11.7461C49.2692 11.5319 49.0618 11.2835 48.916 11.001C48.7747 10.7139 48.7041 10.3994 48.7041 10.0576C48.7041 9.70215 48.777 9.3763 48.9229 9.08008C49.0687 8.78385 49.2783 8.52409 49.5518 8.30078C49.8252 8.07747 50.1556 7.90658 50.543 7.78809C50.9349 7.66504 51.377 7.60352 51.8691 7.60352ZM61.3301 5.04688H63.0664L65.623 12.3545L68.1797 5.04688H69.916L66.3203 15H64.9258L61.3301 5.04688ZM60.3936 5.04688H62.123L62.4375 12.1699V15H60.3936V5.04688ZM69.123 5.04688H70.8594V15H68.8086V12.1699L69.123 5.04688ZM76.5264 13.332V10.0371C76.5264 9.80013 76.4876 9.59733 76.4102 9.42871C76.3327 9.25553 76.2119 9.12109 76.0479 9.02539C75.8883 8.92969 75.681 8.88184 75.4258 8.88184C75.207 8.88184 75.0179 8.92057 74.8584 8.99805C74.6989 9.07096 74.5758 9.17806 74.4893 9.31934C74.4027 9.45605 74.3594 9.61784 74.3594 9.80469H72.3906C72.3906 9.49023 72.4635 9.19173 72.6094 8.90918C72.7552 8.62663 72.9671 8.37826 73.2451 8.16406C73.5231 7.94531 73.8535 7.77441 74.2363 7.65137C74.6237 7.52832 75.0566 7.4668 75.5352 7.4668C76.1094 7.4668 76.6198 7.5625 77.0664 7.75391C77.513 7.94531 77.8639 8.23242 78.1191 8.61523C78.3789 8.99805 78.5088 9.47656 78.5088 10.0508V13.2158C78.5088 13.6214 78.5339 13.9541 78.584 14.2139C78.6341 14.4691 78.707 14.6924 78.8027 14.8838V15H76.8135C76.7178 14.7995 76.6449 14.5488 76.5947 14.248C76.5492 13.9427 76.5264 13.6374 76.5264 13.332ZM76.7861 10.4951L76.7998 11.6094H75.6992C75.4395 11.6094 75.2139 11.639 75.0225 11.6982C74.8311 11.7575 74.6738 11.8418 74.5508 11.9512C74.4277 12.056 74.3366 12.179 74.2773 12.3203C74.2227 12.4616 74.1953 12.6165 74.1953 12.7852C74.1953 12.9538 74.234 13.1064 74.3115 13.2432C74.389 13.3753 74.5007 13.4801 74.6465 13.5576C74.7923 13.6305 74.9632 13.667 75.1592 13.667C75.4554 13.667 75.7129 13.6077 75.9316 13.4893C76.1504 13.3708 76.319 13.2249 76.4375 13.0518C76.5605 12.8786 76.6243 12.7145 76.6289 12.5596L77.1484 13.3936C77.0755 13.5804 76.9753 13.7741 76.8477 13.9746C76.7246 14.1751 76.5674 14.3643 76.376 14.542C76.1846 14.7152 75.9544 14.8587 75.6855 14.9727C75.4167 15.082 75.0977 15.1367 74.7285 15.1367C74.2591 15.1367 73.833 15.0433 73.4502 14.8564C73.0719 14.665 72.7712 14.403 72.5479 14.0703C72.3291 13.7331 72.2197 13.3503 72.2197 12.9219C72.2197 12.5345 72.2926 12.1904 72.4385 11.8896C72.5843 11.5889 72.7985 11.3359 73.0811 11.1309C73.3682 10.9212 73.7259 10.764 74.1543 10.6592C74.5827 10.5498 75.0794 10.4951 75.6445 10.4951H76.7861ZM83.6836 7.60352V15H81.708V7.60352H83.6836ZM86.0625 7.60352V9.12793H79.3633V7.60352H86.0625ZM93.3018 7.60352V15H91.3262V7.60352H93.3018ZM92.3721 10.7686V12.3066C92.2217 12.3841 92.028 12.457 91.791 12.5254C91.554 12.5938 91.3034 12.6484 91.0391 12.6895C90.7793 12.7259 90.5378 12.7441 90.3145 12.7441C89.6035 12.7441 88.9928 12.6462 88.4824 12.4502C87.9766 12.2542 87.5869 11.9466 87.3135 11.5273C87.04 11.1081 86.9033 10.5703 86.9033 9.91406V7.59668H88.8721V9.91406C88.8721 10.2467 88.9222 10.5088 89.0225 10.7002C89.1227 10.887 89.2777 11.0192 89.4873 11.0967C89.7015 11.1696 89.9772 11.2061 90.3145 11.2061C90.5514 11.2061 90.7816 11.1878 91.0049 11.1514C91.2282 11.1149 91.4515 11.0648 91.6748 11.001C91.8981 10.9372 92.1305 10.8597 92.3721 10.7686ZM98.2236 15.1367C97.6494 15.1367 97.1344 15.0456 96.6787 14.8633C96.223 14.6764 95.8356 14.4189 95.5166 14.0908C95.2021 13.7627 94.9606 13.3822 94.792 12.9492C94.6234 12.5117 94.5391 12.0469 94.5391 11.5547V11.2812C94.5391 10.7207 94.6188 10.208 94.7783 9.74316C94.9378 9.27832 95.1657 8.875 95.4619 8.5332C95.7627 8.19141 96.1273 7.92936 96.5557 7.74707C96.984 7.56022 97.4671 7.4668 98.0049 7.4668C98.529 7.4668 98.9938 7.55339 99.3994 7.72656C99.805 7.89974 100.145 8.14583 100.418 8.46484C100.696 8.78385 100.906 9.16667 101.047 9.61328C101.188 10.0553 101.259 10.5475 101.259 11.0898V11.9102H95.3799V10.5977H99.3242V10.4473C99.3242 10.1738 99.2741 9.93001 99.1738 9.71582C99.0781 9.49707 98.9323 9.32389 98.7363 9.19629C98.5404 9.06868 98.2897 9.00488 97.9844 9.00488C97.7246 9.00488 97.5013 9.06185 97.3145 9.17578C97.1276 9.28971 96.9749 9.44922 96.8564 9.6543C96.7425 9.85938 96.6559 10.1009 96.5967 10.3789C96.542 10.6523 96.5146 10.9531 96.5146 11.2812V11.5547C96.5146 11.8509 96.5557 12.1243 96.6377 12.375C96.7243 12.6257 96.8451 12.8421 97 13.0244C97.1595 13.2067 97.3509 13.348 97.5742 13.4482C97.8021 13.5485 98.0596 13.5986 98.3467 13.5986C98.7021 13.5986 99.0326 13.5303 99.3379 13.3936C99.6478 13.2523 99.9144 13.0404 100.138 12.7578L101.095 13.7969C100.94 14.0202 100.728 14.2344 100.459 14.4395C100.195 14.6445 99.8757 14.8132 99.502 14.9453C99.1283 15.0729 98.7021 15.1367 98.2236 15.1367ZM104.342 12.252L106.823 7.60352H108.792V15H106.823V10.3447L104.342 15H102.373V7.60352H104.342V12.252ZM106.598 4.62988H107.999C107.999 5.02181 107.901 5.37044 107.705 5.67578C107.514 5.97656 107.24 6.21354 106.885 6.38672C106.529 6.55534 106.11 6.63965 105.627 6.63965C104.893 6.63965 104.312 6.4528 103.884 6.0791C103.46 5.7054 103.248 5.22233 103.248 4.62988H104.643C104.643 4.86686 104.715 5.07878 104.861 5.26562C105.012 5.45247 105.267 5.5459 105.627 5.5459C105.982 5.5459 106.233 5.45247 106.379 5.26562C106.525 5.07878 106.598 4.86686 106.598 4.62988Z" fill="#FFBABA"/>
</svg>
