<svg width="92" height="21" viewBox="0 0 92 21" fill="none" xmlns="http://www.w3.org/2000/svg">
<path d="M91.5 20H0.5V22H91.5V20Z" fill="#FFBABA" fill-opacity="0.3" mask="url(#path-1-inside-1_13_556)"/>
<path opacity="0.3" d="M11.9297 15H10.0908V8.3418H10.0361L7.35645 14.9043H6.05762L3.37793 8.3418H3.32324V15H1.48438V5.13574H3.87695L6.67969 12.1289H6.73438L9.53711 5.13574H11.9297V15ZM16.8994 15.1572C14.6846 15.1572 13.2695 13.7354 13.2695 11.3291C13.2695 8.95703 14.7051 7.51465 16.8994 7.51465C19.0938 7.51465 20.5293 8.9502 20.5293 11.3291C20.5293 13.7422 19.1143 15.1572 16.8994 15.1572ZM16.8994 13.6328C17.877 13.6328 18.499 12.8057 18.499 11.3359C18.499 9.87988 17.8701 9.03906 16.8994 9.03906C15.9287 9.03906 15.293 9.87988 15.293 11.3359C15.293 12.8057 15.915 13.6328 16.8994 13.6328ZM23.6396 15H21.6846V7.67188H23.6396V12.252H23.6943L26.6064 7.67188H28.5615V15H26.6064V10.3652H26.5518L23.6396 15ZM22.7783 4.35645H23.9951C24.0088 5.08789 24.4668 5.61426 25.1846 5.61426C25.8955 5.61426 26.3535 5.08789 26.3672 4.35645H27.5908C27.5908 5.70312 26.6201 6.60547 25.1846 6.60547C23.7422 6.60547 22.7783 5.70312 22.7783 4.35645ZM37.5098 15V9.17578H34.7617V15H32.7725V7.67188H39.499V15H37.5098ZM45.2139 7.55566C47.0732 7.55566 48.2148 8.9707 48.2148 11.3359C48.2148 13.6943 47.0801 15.1162 45.248 15.1162C44.1816 15.1162 43.3613 14.5967 42.9717 13.7695H42.9307V17.3926H40.9346V7.67188H42.9033V8.9502H42.9443C43.3408 8.08887 44.1543 7.55566 45.2139 7.55566ZM44.5439 13.5098C45.542 13.5098 46.1709 12.6689 46.1709 11.3359C46.1709 10.0098 45.542 9.15527 44.5439 9.15527C43.5664 9.15527 42.9238 10.0234 42.9238 11.3359C42.9238 12.6621 43.5664 13.5098 44.5439 13.5098ZM52.7607 15.1572C50.5459 15.1572 49.1309 13.7354 49.1309 11.3291C49.1309 8.95703 50.5664 7.51465 52.7607 7.51465C54.9551 7.51465 56.3906 8.9502 56.3906 11.3291C56.3906 13.7422 54.9756 15.1572 52.7607 15.1572ZM52.7607 13.6328C53.7383 13.6328 54.3604 12.8057 54.3604 11.3359C54.3604 9.87988 53.7314 9.03906 52.7607 9.03906C51.79 9.03906 51.1543 9.87988 51.1543 11.3359C51.1543 12.8057 51.7764 13.6328 52.7607 13.6328ZM61.2646 13.5986V9.06641C60.0684 9.10059 59.2891 9.94141 59.2891 11.3359C59.2891 12.7373 60.0547 13.5645 61.2646 13.5986ZM65.1475 11.3359C65.1475 9.92773 64.375 9.10742 63.1719 9.06641V13.5986C64.3682 13.5645 65.1475 12.7236 65.1475 11.3359ZM61.2441 15.1094C58.8174 15.0547 57.2725 13.6465 57.2725 11.3291C57.2725 9.0459 58.8379 7.61719 61.2441 7.5625V5.34766H63.1924V7.5625C65.6123 7.61719 67.1572 9.01855 67.1572 11.3359C67.1572 13.6191 65.5918 15.0547 63.1924 15.1094V17.3926H61.2441V15.1094ZM70.2881 15H68.333V7.67188H70.2881V12.252H70.3428L73.2549 7.67188H75.21V15H73.2549V10.3652H73.2002L70.2881 15ZM79.3184 11.4863C79.1885 13.6602 78.5938 15.0889 76.7822 15.0889C76.4746 15.0889 76.249 15.0342 76.1465 14.9932V13.3115C76.2285 13.332 76.3789 13.3594 76.5771 13.3594C77.2744 13.3594 77.4863 12.5117 77.5479 11.3564L77.7529 7.67188H83.3105V15H81.3213V9.17578H79.4619L79.3184 11.4863ZM87.8428 11.2607H86.7422V13.5098H87.8428C88.5674 13.5098 89.0322 13.0518 89.0322 12.3818C89.0322 11.7119 88.5605 11.2607 87.8428 11.2607ZM84.7529 15V7.67188H86.7422V9.79102H88.1709C89.9004 9.79102 91.0078 10.8027 91.0078 12.3955C91.0078 13.9883 89.9004 15 88.1709 15H84.7529Z" fill="#FFBABA"/>
</svg>
