<svg width="210" height="31" viewBox="0 0 210 31" fill="none" xmlns="http://www.w3.org/2000/svg">
<path d="M19.6406 25H14.9219V15.5H4.76562V25H0.046875V2.45312H4.76562V11.6094H14.9219V2.45312H19.6406V25ZM29.7812 21.9688C31.7656 21.9688 33.4062 20.6719 33.4062 18.8594V17.6406L29.875 17.8594C28.1719 17.9844 27.2031 18.75 27.2031 19.9375C27.2031 21.1875 28.2344 21.9688 29.7812 21.9688ZM28.2812 25.2656C25.0938 25.2656 22.6719 23.2031 22.6719 20.1875C22.6719 17.1406 25.0156 15.375 29.1875 15.125L33.4062 14.875V13.7656C33.4062 12.2031 32.3125 11.2969 30.5938 11.2969C28.8906 11.2969 27.8125 12.1406 27.5938 13.375H23.4219C23.5938 10.125 26.3594 7.89062 30.7969 7.89062C35.0938 7.89062 37.8906 10.1094 37.8906 13.4844V25H33.4844V22.4375H33.3906C32.4531 24.2188 30.375 25.2656 28.2812 25.2656ZM45.5938 25H41.125V8.25H45.5938V18.7188H45.7188L52.375 8.25H56.8438V25H52.375V14.4062H52.25L45.5938 25ZM43.625 0.671875H46.4062C46.4375 2.34375 47.4844 3.54688 49.125 3.54688C50.75 3.54688 51.7969 2.34375 51.8281 0.671875H54.625C54.625 3.75 52.4062 5.8125 49.125 5.8125C45.8281 5.8125 43.625 3.75 43.625 0.671875ZM73.7031 8.25V11.6875H68.7188V25H64.1719V11.6875H59.1719V8.25H73.7031ZM80.5 25H76.0312V8.25H80.5V18.7188H80.625L87.2812 8.25H91.75V25H87.2812V14.4062H87.1562L80.5 25ZM116.734 25V9.75H116.547L106.312 25H101.766V2.45312H106.469V17.7188H106.656L116.891 2.45312H121.438V25H116.734ZM136.797 11.6875H129.672V25H125.125V8.25H136.797V11.6875ZM149.219 7.98438C153.469 7.98438 156.078 11.2188 156.078 16.625C156.078 22.0156 153.484 25.2656 149.297 25.2656C146.859 25.2656 144.984 24.0781 144.094 22.1875H144V30.4688H139.438V8.25H143.938V11.1719H144.031C144.938 9.20312 146.797 7.98438 149.219 7.98438ZM147.688 21.5938C149.969 21.5938 151.406 19.6719 151.406 16.625C151.406 13.5938 149.969 11.6406 147.688 11.6406C145.453 11.6406 143.984 13.625 143.984 16.625C143.984 19.6562 145.453 21.5938 147.688 21.5938ZM166.469 25.3594C161.406 25.3594 158.172 22.1094 158.172 16.6094C158.172 11.1875 161.453 7.89062 166.469 7.89062C171.484 7.89062 174.766 11.1719 174.766 16.6094C174.766 22.125 171.531 25.3594 166.469 25.3594ZM166.469 21.875C168.703 21.875 170.125 19.9844 170.125 16.625C170.125 13.2969 168.688 11.375 166.469 11.375C164.25 11.375 162.797 13.2969 162.797 16.625C162.797 19.9844 164.219 21.875 166.469 21.875ZM186.172 16L193.25 25H187.734L182.078 17.8125H181.953V25H177.406V8.25H181.953V14.9844H182.078L187.641 8.25H192.859L186.172 16ZM201.281 21.9688C203.266 21.9688 204.906 20.6719 204.906 18.8594V17.6406L201.375 17.8594C199.672 17.9844 198.703 18.75 198.703 19.9375C198.703 21.1875 199.734 21.9688 201.281 21.9688ZM199.781 25.2656C196.594 25.2656 194.172 23.2031 194.172 20.1875C194.172 17.1406 196.516 15.375 200.688 15.125L204.906 14.875V13.7656C204.906 12.2031 203.812 11.2969 202.094 11.2969C200.391 11.2969 199.312 12.1406 199.094 13.375H194.922C195.094 10.125 197.859 7.89062 202.297 7.89062C206.594 7.89062 209.391 10.1094 209.391 13.4844V25H204.984V22.4375H204.891C203.953 24.2188 201.875 25.2656 199.781 25.2656Z" fill="white"/>
</svg>
