<svg width="136" height="21" viewBox="0 0 136 21" fill="none" xmlns="http://www.w3.org/2000/svg">
<path d="M136 20H0V22H136V20Z" fill="#FFBABA" fill-opacity="0.3" mask="url(#path-1-inside-1_9_239)"/>
<path opacity="0.3" d="M9.39551 15H7.33789V6.84473H2.99707V15H0.925781V5.13574H9.39551V15ZM14.3721 15.1572C12.1572 15.1572 10.7422 13.7354 10.7422 11.3291C10.7422 8.95703 12.1777 7.51465 14.3721 7.51465C16.5664 7.51465 18.002 8.9502 18.002 11.3291C18.002 13.7422 16.5869 15.1572 14.3721 15.1572ZM14.3721 13.6328C15.3496 13.6328 15.9717 12.8057 15.9717 11.3359C15.9717 9.87988 15.3428 9.03906 14.3721 9.03906C13.4014 9.03906 12.7656 9.87988 12.7656 11.3359C12.7656 12.8057 13.3877 13.6328 14.3721 13.6328ZM21.1123 15H19.1572V7.67188H21.1123V12.252H21.167L24.0791 7.67188H26.0342V15H24.0791V10.3652H24.0244L21.1123 15ZM34.0664 10.1738H32.2002C32.0361 9.53809 31.5576 9.08008 30.7988 9.08008C29.8145 9.08008 29.2061 9.92773 29.2061 11.3291C29.2061 12.7578 29.8145 13.5918 30.8057 13.5918C31.5508 13.5918 32.043 13.1885 32.2139 12.498H34.0732C33.8955 14.1182 32.6445 15.1572 30.7852 15.1572C28.584 15.1572 27.1963 13.708 27.1963 11.3291C27.1963 8.99121 28.584 7.51465 30.7715 7.51465C32.6582 7.51465 33.875 8.63574 34.0664 10.1738ZM39.0156 11.0625L42.1123 15H39.6992L37.2246 11.8555H37.1699V15H35.1807V7.67188H37.1699V10.6182H37.2246L39.6582 7.67188H41.9414L39.0156 11.0625ZM47.6357 15H45.6807V7.67188H47.6357V12.252H47.6904L50.6025 7.67188H52.5576V15H50.6025V10.3652H50.5479L47.6357 15ZM59.0996 9.17578H55.9824V15H53.9932V7.67188H59.0996V9.17578ZM64.5342 7.55566C66.3936 7.55566 67.5352 8.9707 67.5352 11.3359C67.5352 13.6943 66.4004 15.1162 64.5684 15.1162C63.502 15.1162 62.6816 14.5967 62.292 13.7695H62.251V17.3926H60.2549V7.67188H62.2236V8.9502H62.2646C62.6611 8.08887 63.4746 7.55566 64.5342 7.55566ZM63.8643 13.5098C64.8623 13.5098 65.4912 12.6689 65.4912 11.3359C65.4912 10.0098 64.8623 9.15527 63.8643 9.15527C62.8867 9.15527 62.2441 10.0234 62.2441 11.3359C62.2441 12.6621 62.8867 13.5098 63.8643 13.5098ZM72.0811 15.1572C69.8662 15.1572 68.4512 13.7354 68.4512 11.3291C68.4512 8.95703 69.8867 7.51465 72.0811 7.51465C74.2754 7.51465 75.7109 8.9502 75.7109 11.3291C75.7109 13.7422 74.2959 15.1572 72.0811 15.1572ZM72.0811 13.6328C73.0586 13.6328 73.6807 12.8057 73.6807 11.3359C73.6807 9.87988 73.0518 9.03906 72.0811 9.03906C71.1104 9.03906 70.4746 9.87988 70.4746 11.3359C70.4746 12.8057 71.0967 13.6328 72.0811 13.6328ZM80.7012 11.0625L83.7979 15H81.3848L78.9102 11.8555H78.8555V15H76.8662V7.67188H78.8555V10.6182H78.9102L81.3438 7.67188H83.627L80.7012 11.0625ZM87.3115 13.6738C88.1797 13.6738 88.8975 13.1064 88.8975 12.3135V11.7803L87.3525 11.876C86.6074 11.9307 86.1836 12.2656 86.1836 12.7852C86.1836 13.332 86.6348 13.6738 87.3115 13.6738ZM86.6553 15.1162C85.2607 15.1162 84.2012 14.2139 84.2012 12.8945C84.2012 11.5615 85.2266 10.7891 87.0518 10.6797L88.8975 10.5703V10.085C88.8975 9.40137 88.4189 9.00488 87.667 9.00488C86.9219 9.00488 86.4502 9.37402 86.3545 9.91406H84.5293C84.6045 8.49219 85.8145 7.51465 87.7559 7.51465C89.6357 7.51465 90.8594 8.48535 90.8594 9.96191V15H88.9316V13.8789H88.8906C88.4805 14.6582 87.5713 15.1162 86.6553 15.1162ZM95.1523 5.13574H98.9189C101.879 5.13574 103.622 6.89941 103.622 10.0303C103.622 13.1611 101.879 15 98.9189 15H95.1523V5.13574ZM97.2168 6.83789V13.291H98.6729C100.519 13.291 101.517 12.1699 101.517 10.0371C101.517 7.97266 100.491 6.83789 98.6729 6.83789H97.2168ZM108.147 15.1572C105.933 15.1572 104.518 13.7354 104.518 11.3291C104.518 8.95703 105.953 7.51465 108.147 7.51465C110.342 7.51465 111.777 8.9502 111.777 11.3291C111.777 13.7422 110.362 15.1572 108.147 15.1572ZM108.147 13.6328C109.125 13.6328 109.747 12.8057 109.747 11.3359C109.747 9.87988 109.118 9.03906 108.147 9.03906C107.177 9.03906 106.541 9.87988 106.541 11.3359C106.541 12.8057 107.163 13.6328 108.147 13.6328ZM113.343 5.9834H115.339V7.67188H116.692V9.17578H115.339V12.6826C115.339 13.2432 115.612 13.5098 116.2 13.5098C116.378 13.5098 116.562 13.4961 116.686 13.4756V14.9453C116.48 14.9932 116.139 15.0273 115.735 15.0273C114.013 15.0273 113.343 14.4531 113.343 13.0244V9.17578H112.311V7.67188H113.343V5.9834ZM120.548 13.6738C121.416 13.6738 122.134 13.1064 122.134 12.3135V11.7803L120.589 11.876C119.844 11.9307 119.42 12.2656 119.42 12.7852C119.42 13.332 119.871 13.6738 120.548 13.6738ZM119.892 15.1162C118.497 15.1162 117.438 14.2139 117.438 12.8945C117.438 11.5615 118.463 10.7891 120.288 10.6797L122.134 10.5703V10.085C122.134 9.40137 121.655 9.00488 120.903 9.00488C120.158 9.00488 119.687 9.37402 119.591 9.91406H117.766C117.841 8.49219 119.051 7.51465 120.992 7.51465C122.872 7.51465 124.096 8.48535 124.096 9.96191V15H122.168V13.8789H122.127C121.717 14.6582 120.808 15.1162 119.892 15.1162ZM128.095 8.10254C128.095 6.23633 129.585 4.91699 131.738 4.91699C133.816 4.91699 135.245 6.12012 135.245 7.76758C135.245 8.99805 134.425 9.9209 133.338 11.001L130.932 13.3184V13.3594H135.382V15H128.211V13.6123L131.93 10.0303C132.928 9.03223 133.235 8.5332 133.235 7.84961C133.235 7.11133 132.586 6.52344 131.67 6.52344C130.713 6.52344 130.009 7.19336 130.009 8.10254V8.13672H128.095V8.10254Z" fill="#FFBABA"/>
</svg>
