<svg width="112" height="21" viewBox="0 0 112 21" fill="none" xmlns="http://www.w3.org/2000/svg">
<path d="M111.5 20H0.5V22H111.5V20Z" fill="#FFBABA" fill-opacity="0.3" mask="url(#path-1-inside-1_10_673)"/>
<path opacity="0.3" d="M9.95312 15H7.89551V6.84473H3.55469V15H1.4834V5.13574H9.95312V15ZM15.8457 7.55566C17.7051 7.55566 18.8467 8.9707 18.8467 11.3359C18.8467 13.6943 17.7119 15.1162 15.8799 15.1162C14.8135 15.1162 13.9932 14.5967 13.6035 13.7695H13.5625V17.3926H11.5664V7.67188H13.5352V8.9502H13.5762C13.9727 8.08887 14.7861 7.55566 15.8457 7.55566ZM15.1758 13.5098C16.1738 13.5098 16.8027 12.6689 16.8027 11.3359C16.8027 10.0098 16.1738 9.15527 15.1758 9.15527C14.1982 9.15527 13.5557 10.0234 13.5557 11.3359C13.5557 12.6621 14.1982 13.5098 15.1758 13.5098ZM23.3926 15.1572C21.1777 15.1572 19.7627 13.7354 19.7627 11.3291C19.7627 8.95703 21.1982 7.51465 23.3926 7.51465C25.5869 7.51465 27.0225 8.9502 27.0225 11.3291C27.0225 13.7422 25.6074 15.1572 23.3926 15.1572ZM23.3926 13.6328C24.3701 13.6328 24.9922 12.8057 24.9922 11.3359C24.9922 9.87988 24.3633 9.03906 23.3926 9.03906C22.4219 9.03906 21.7861 9.87988 21.7861 11.3359C21.7861 12.8057 22.4082 13.6328 23.3926 13.6328ZM31.8965 13.5986V9.06641C30.7002 9.10059 29.9209 9.94141 29.9209 11.3359C29.9209 12.7373 30.6865 13.5645 31.8965 13.5986ZM35.7793 11.3359C35.7793 9.92773 35.0068 9.10742 33.8037 9.06641V13.5986C35 13.5645 35.7793 12.7236 35.7793 11.3359ZM31.876 15.1094C29.4492 15.0547 27.9043 13.6465 27.9043 11.3291C27.9043 9.0459 29.4697 7.61719 31.876 7.5625V5.34766H33.8242V7.5625C36.2441 7.61719 37.7891 9.01855 37.7891 11.3359C37.7891 13.6191 36.2236 15.0547 33.8242 15.1094V17.3926H31.876V15.1094ZM40.9199 15H38.9648V7.67188H40.9199V12.252H40.9746L43.8867 7.67188H45.8418V15H43.8867V10.3652H43.832L40.9199 15ZM49.9502 11.4863C49.8203 13.6602 49.2256 15.0889 47.4141 15.0889C47.1064 15.0889 46.8809 15.0342 46.7783 14.9932V13.3115C46.8604 13.332 47.0107 13.3594 47.209 13.3594C47.9062 13.3594 48.1182 12.5117 48.1797 11.3564L48.3848 7.67188H53.9424V15H51.9531V9.17578H50.0938L49.9502 11.4863ZM58.4746 11.2607H57.374V13.5098H58.4746C59.1992 13.5098 59.6641 13.0518 59.6641 12.3818C59.6641 11.7119 59.1924 11.2607 58.4746 11.2607ZM55.3848 15V7.67188H57.374V9.79102H58.8027C60.5322 9.79102 61.6396 10.8027 61.6396 12.3955C61.6396 13.9883 60.5322 15 58.8027 15H55.3848ZM67.4844 15H65.5293V7.67188H67.4844V12.252H67.5391L70.4512 7.67188H72.4062V15H70.4512V10.3652H70.3965L67.4844 15ZM78.9482 9.17578H75.8311V15H73.8418V7.67188H78.9482V9.17578ZM84.3828 7.55566C86.2422 7.55566 87.3838 8.9707 87.3838 11.3359C87.3838 13.6943 86.249 15.1162 84.417 15.1162C83.3506 15.1162 82.5303 14.5967 82.1406 13.7695H82.0996V17.3926H80.1035V7.67188H82.0723V8.9502H82.1133C82.5098 8.08887 83.3232 7.55566 84.3828 7.55566ZM83.7129 13.5098C84.7109 13.5098 85.3398 12.6689 85.3398 11.3359C85.3398 10.0098 84.7109 9.15527 83.7129 9.15527C82.7354 9.15527 82.0928 10.0234 82.0928 11.3359C82.0928 12.6621 82.7354 13.5098 83.7129 13.5098ZM91.9297 15.1572C89.7148 15.1572 88.2998 13.7354 88.2998 11.3291C88.2998 8.95703 89.7354 7.51465 91.9297 7.51465C94.124 7.51465 95.5596 8.9502 95.5596 11.3291C95.5596 13.7422 94.1445 15.1572 91.9297 15.1572ZM91.9297 13.6328C92.9072 13.6328 93.5293 12.8057 93.5293 11.3359C93.5293 9.87988 92.9004 9.03906 91.9297 9.03906C90.959 9.03906 90.3232 9.87988 90.3232 11.3359C90.3232 12.8057 90.9453 13.6328 91.9297 13.6328ZM100.55 11.0625L103.646 15H101.233L98.7588 11.8555H98.7041V15H96.7148V7.67188H98.7041V10.6182H98.7588L101.192 7.67188H103.476L100.55 11.0625ZM107.16 13.6738C108.028 13.6738 108.746 13.1064 108.746 12.3135V11.7803L107.201 11.876C106.456 11.9307 106.032 12.2656 106.032 12.7852C106.032 13.332 106.483 13.6738 107.16 13.6738ZM106.504 15.1162C105.109 15.1162 104.05 14.2139 104.05 12.8945C104.05 11.5615 105.075 10.7891 106.9 10.6797L108.746 10.5703V10.085C108.746 9.40137 108.268 9.00488 107.516 9.00488C106.771 9.00488 106.299 9.37402 106.203 9.91406H104.378C104.453 8.49219 105.663 7.51465 107.604 7.51465C109.484 7.51465 110.708 8.48535 110.708 9.96191V15H108.78V13.8789H108.739C108.329 14.6582 107.42 15.1162 106.504 15.1162Z" fill="#FFBABA"/>
</svg>
