<svg width="131" height="21" viewBox="0 0 131 21" fill="none" xmlns="http://www.w3.org/2000/svg">
<path d="M131 20H0V22H131V20Z" fill="#FFBABA" fill-opacity="0.3" mask="url(#path-1-inside-1_9_243)"/>
<path opacity="0.3" d="M1.29688 5.13574H5.30957C7.33301 5.13574 8.72754 6.48242 8.72754 8.5127C8.72754 10.5361 7.28516 11.8896 5.20703 11.8896H3.36133V15H1.29688V5.13574ZM3.36133 6.76953V10.2764H4.75586C5.93848 10.2764 6.62891 9.64746 6.62891 8.51953C6.62891 7.39844 5.94531 6.76953 4.7627 6.76953H3.36133ZM13.0684 8.99121C12.1934 8.99121 11.5645 9.6543 11.4961 10.5703H14.6064C14.5654 9.63379 13.957 8.99121 13.0684 8.99121ZM14.6338 12.7578H16.4658C16.2471 14.1934 14.9346 15.1572 13.123 15.1572C10.8672 15.1572 9.51367 13.7148 9.51367 11.3701C9.51367 9.03223 10.8809 7.51465 13.0479 7.51465C15.1807 7.51465 16.5273 8.95703 16.5273 11.1855V11.7939H11.4756V11.917C11.4756 12.9629 12.1387 13.6807 13.1572 13.6807C13.8887 13.6807 14.4492 13.3184 14.6338 12.7578ZM20.6494 15.1572C18.749 15.1572 17.5049 14.2275 17.3682 12.6758H19.2686C19.4395 13.2979 19.9111 13.6123 20.6494 13.6123C21.4424 13.6123 21.8799 13.2637 21.8799 12.7305C21.8799 12.1562 21.4697 11.8896 20.6562 11.8896H19.6445V10.5908H20.6016C21.3057 10.5908 21.668 10.3379 21.668 9.81836C21.668 9.33984 21.3193 9.01855 20.6152 9.01855C19.918 9.01855 19.4736 9.32617 19.3848 9.87988H17.5049C17.6484 8.41016 18.8105 7.51465 20.6016 7.51465C22.5566 7.51465 23.6094 8.29395 23.6094 9.59961C23.6094 10.3311 23.1924 10.9258 22.5088 11.1172V11.1719C23.3975 11.4043 23.8691 11.9922 23.8691 12.8057C23.8691 14.248 22.6387 15.1572 20.6494 15.1572ZM25.8379 17.7139C25.7695 17.7139 25.1475 17.707 25.0859 17.6934V16.1553C25.1475 16.1689 25.5098 16.1689 25.585 16.1689C26.3164 16.1689 26.6787 15.9365 26.8154 15.3555C26.8154 15.3281 26.8906 15.0342 26.877 15.0068L24.3271 7.67188H26.5215L28.0801 13.4004H28.1143L29.6729 7.67188H31.7783L29.2559 15.1641C28.627 17.0439 27.7109 17.7139 25.8379 17.7139ZM34.793 11.4863C34.6631 13.6602 34.0684 15.0889 32.2568 15.0889C31.9492 15.0889 31.7236 15.0342 31.6211 14.9932V13.3115C31.7031 13.332 31.8535 13.3594 32.0518 13.3594C32.749 13.3594 32.9609 12.5117 33.0225 11.3564L33.2275 7.67188H38.7852V15H36.7959V9.17578H34.9365L34.793 11.4863ZM43.3174 11.2607H42.2168V13.5098H43.3174C44.042 13.5098 44.5068 13.0518 44.5068 12.3818C44.5068 11.7119 44.0352 11.2607 43.3174 11.2607ZM40.2275 15V7.67188H42.2168V9.79102H43.6455C45.375 9.79102 46.4824 10.8027 46.4824 12.3955C46.4824 13.9883 45.375 15 43.6455 15H40.2275ZM52.7441 7.67188V9.17578H50.5635V15H48.5742V9.17578H46.3867V7.67188H52.7441ZM56.4561 13.6738C57.3242 13.6738 58.042 13.1064 58.042 12.3135V11.7803L56.4971 11.876C55.752 11.9307 55.3281 12.2656 55.3281 12.7852C55.3281 13.332 55.7793 13.6738 56.4561 13.6738ZM55.7998 15.1162C54.4053 15.1162 53.3457 14.2139 53.3457 12.8945C53.3457 11.5615 54.3711 10.7891 56.1963 10.6797L58.042 10.5703V10.085C58.042 9.40137 57.5635 9.00488 56.8115 9.00488C56.0664 9.00488 55.5947 9.37402 55.499 9.91406H53.6738C53.749 8.49219 54.959 7.51465 56.9004 7.51465C58.7803 7.51465 60.0039 8.48535 60.0039 9.96191V15H58.0762V13.8789H58.0352C57.625 14.6582 56.7158 15.1162 55.7998 15.1162ZM67.291 7.67188V9.17578H65.1104V15H63.1211V9.17578H60.9336V7.67188H67.291ZM75.2822 15V7.67188H77.2715V15H75.2822ZM71.3994 11.2607H70.2988V13.5098H71.3994C72.124 13.5098 72.5889 13.0518 72.5889 12.3818C72.5889 11.7119 72.1172 11.2607 71.3994 11.2607ZM68.3096 15V7.67188H70.2988V9.79102H71.7275C73.457 9.79102 74.5645 10.8027 74.5645 12.3955C74.5645 13.9883 73.457 15 71.7275 15H68.3096ZM90.1162 15H88.0586V6.84473H83.7178V15H81.6465V5.13574H90.1162V15ZM95.0928 15.1572C92.8779 15.1572 91.4629 13.7354 91.4629 11.3291C91.4629 8.95703 92.8984 7.51465 95.0928 7.51465C97.2871 7.51465 98.7227 8.9502 98.7227 11.3291C98.7227 13.7422 97.3076 15.1572 95.0928 15.1572ZM95.0928 13.6328C96.0703 13.6328 96.6924 12.8057 96.6924 11.3359C96.6924 9.87988 96.0635 9.03906 95.0928 9.03906C94.1221 9.03906 93.4863 9.87988 93.4863 11.3359C93.4863 12.8057 94.1084 13.6328 95.0928 13.6328ZM101.833 15H99.8779V7.67188H101.833V12.252H101.888L104.8 7.67188H106.755V15H104.8V10.3652H104.745L101.833 15ZM114.787 10.1738H112.921C112.757 9.53809 112.278 9.08008 111.52 9.08008C110.535 9.08008 109.927 9.92773 109.927 11.3291C109.927 12.7578 110.535 13.5918 111.526 13.5918C112.271 13.5918 112.764 13.1885 112.935 12.498H114.794C114.616 14.1182 113.365 15.1572 111.506 15.1572C109.305 15.1572 107.917 13.708 107.917 11.3291C107.917 8.99121 109.305 7.51465 111.492 7.51465C113.379 7.51465 114.596 8.63574 114.787 10.1738ZM119.736 11.0625L122.833 15H120.42L117.945 11.8555H117.891V15H115.901V7.67188H117.891V10.6182H117.945L120.379 7.67188H122.662L119.736 11.0625ZM126.347 13.6738C127.215 13.6738 127.933 13.1064 127.933 12.3135V11.7803L126.388 11.876C125.643 11.9307 125.219 12.2656 125.219 12.7852C125.219 13.332 125.67 13.6738 126.347 13.6738ZM125.69 15.1162C124.296 15.1162 123.236 14.2139 123.236 12.8945C123.236 11.5615 124.262 10.7891 126.087 10.6797L127.933 10.5703V10.085C127.933 9.40137 127.454 9.00488 126.702 9.00488C125.957 9.00488 125.485 9.37402 125.39 9.91406H123.564C123.64 8.49219 124.85 7.51465 126.791 7.51465C128.671 7.51465 129.895 8.48535 129.895 9.96191V15H127.967V13.8789H127.926C127.516 14.6582 126.606 15.1162 125.69 15.1162Z" fill="#FFBABA"/>
</svg>
